<?xml version="1.0" standalone="no"?>
<!DOCTYPE svg PUBLIC "-//W3C//DTD SVG 1.1//EN" "http://www.w3.org/Graphics/SVG/1.1/DTD/svg11.dtd" >
<svg>
<metadata>
Created by FontForge 20090914 at Mon Jan 20 12:31:26 2014
 By www-data
Copyright SoftMaker Software GmbH 1995
</metadata>
<defs>
<font id="Gibson-Regular" horiz-adv-x="503" >
  <font-face 
    font-family="Gibson"
    font-weight="400"
    font-stretch="normal"
    units-per-em="1000"
    panose-1="0 0 0 0 0 0 0 0 0 0"
    ascent="800"
    descent="-200"
    x-height="459"
    cap-height="706"
    bbox="-174 -263.002 989.999 925"
    underline-thickness="40"
    underline-position="-127"
    unicode-range="U+0020-U+2215"
  />
<missing-glyph horiz-adv-x="700" 
d="M43 0v700h614v-700h-614zM614 43v614h-528v-614h528z" />
    <glyph glyph-name=".notdef" horiz-adv-x="700" 
d="M43 0v700h614v-700h-614zM614 43v614h-528v-614h528z" />
    <glyph glyph-name="space" unicode=" " horiz-adv-x="262" 
 />
    <glyph glyph-name="exclam" unicode="!" horiz-adv-x="262" 
d="M146 212c-11.333 62.667 -22.498 128.168 -33.498 196.501s-16.5 130.166 -16.5 185.499c0 32 3 57 9 75c10 30 27.667 45 53 45c23.333 0 39.666 -15 48.999 -45c6 -19.333 9 -44 9 -74c0 -56 -5.33301 -120 -16 -192c-14.667 -85.333 -25.334 -149 -32.001 -191h-22z
M155.002 135.001c20 0 37.167 -6.83301 51.5 -20.5s21.5 -30.167 21.5 -49.5c0 -20.667 -6.5 -38.167 -19.5 -52.5s-30.167 -21.5 -51.5 -21.5c-18 0 -34.5 6.83301 -49.5 20.5s-22.5 29.5 -22.5 47.5c0 20.667 6.5 38.5 19.5 53.5s29.833 22.5 50.5 22.5z" />
    <glyph glyph-name="quotedbl" unicode="&#x22;" horiz-adv-x="428" 
d="M29 410c16 24.667 28 48.1699 36 70.5029s12 46.833 12 73.5v17c-19.333 9.33301 -33 18.833 -41 28.5s-12 24.5 -12 44.5c0 17.333 7 33.333 21 48s29.667 22 47 22c30.667 0 54 -11.667 70 -35c14 -20.667 21 -47.334 21 -80.001s-8.16699 -64.334 -24.5 -95.001
s-37.833 -58.334 -64.5 -83.001l-44 -36zM257 409.003c16 20.667 28.167 44.332 36.5 70.999s12.5 53.667 12.5 81v10c-34.667 12 -52 35 -52 69c0 18.667 6 35.334 18 50.001s27 22 45 22c32 0 55.667 -10.5 71 -31.5s23 -47.833 23 -80.5c0 -42.667 -13 -83.667 -39 -123
c-23.333 -35.333 -54.333 -66.333 -93 -93z" />
    <glyph glyph-name="numbersign" unicode="#" horiz-adv-x="504" 
d="M105 206h-97v67h107l26 193h-107v68h117l29 206h69l-29 -206h124l29 206h69l-29 -206h83v-67h-93l-27 -194h92v-67h-101l-29 -206h-69l29 206h-124l-29 -206h-69zM211 467l-27 -194h123l27 194h-123z" />
    <glyph glyph-name="dollar" unicode="$" horiz-adv-x="483" 
d="M207 799l58.001 0.000976562l-1 -85c44 -8 85.333 -20.333 124 -37v-106c-22 14 -41.333 24.333 -58 31c-20.667 8.66699 -42.334 15 -65.001 19v-228c63.333 -36.667 107 -72.667 131 -108c20.667 -30 31 -62.667 31 -98c0 -109.333 -54 -175.333 -162 -198v-89h-58v89
c-21.333 0 -49.5 7.5 -84.5 22.5s-62.167 30.167 -81.5 45.5v116c21.333 -22 47.5 -41.833 78.5 -59.5s60.167 -27.834 87.5 -30.501v232c-53.333 33.333 -91.333 62.333 -114 87c-34.667 38 -52 81 -52 129c0 54 14.667 96 44 126c26 26.667 66.667 46 122 58v84z
M207.001 620.001c-20 -5.33301 -36 -15.833 -48 -31.5s-18 -34.167 -18 -55.5c0 -20 6.66699 -39 20 -57c10.667 -14 26 -28.333 46 -43v187zM329.001 176.001c0 22 -6 41.333 -18 58c-8.66699 12 -24 26 -46 42v-190c21.333 9.33301 37.333 21 48 35s16 32.333 16 55z" />
    <glyph glyph-name="percent" unicode="%" horiz-adv-x="764" 
d="M517 731l51 -25l-363 -732l-51 25zM726 232c0 -62 -8.33301 -113.333 -25 -154c-23.333 -57.333 -61.666 -86 -114.999 -86c-46.667 0 -81.667 27.333 -105 82c-17.333 40.667 -26 88.667 -26 144c0 58 8.33301 107 25 147c23.333 55.333 59.666 83 108.999 83
s86 -25 110 -75c18 -38 27 -85 27 -141zM591 60c28.667 0 48 21.667 58 65c5.33301 22.667 8 56 8 100c0 40.667 -3 72.667 -9 96c-10.667 41.333 -30 62 -58 62c-26.667 0 -45.334 -21.667 -56.001 -65c-6 -24.667 -9 -57 -9 -97c0 -56.667 5.33301 -97.667 16 -123
s27.334 -38 50.001 -38zM268 497c0 -57.333 -8.33398 -107.332 -25.001 -149.999c-23.333 -60 -59 -90 -107 -90c-53.333 0 -91.666 28.333 -114.999 85c-16 39.333 -24 90.666 -24 153.999c0 52.667 9.33301 99 28 139c24.667 52 60.334 78 107.001 78
c49.333 0 85.666 -25 108.999 -75c18 -38 27 -85 27 -141zM132.999 324.001c28 0 47.001 22 57.001 66c6 26 9 59.333 9 100s-3 72.667 -9 96c-10.667 41.333 -30 62 -58 62c-26.667 0 -45.334 -21.667 -56.001 -65c-6 -24.667 -9 -57 -9 -97c0 -43.333 2.66699 -76 8 -98
c10 -42.667 29.333 -64 58 -64z" />
    <glyph glyph-name="ampersand" unicode="&#x26;" horiz-adv-x="583" 
d="M80 528c0 48 17.5 86.0029 52.5 114.003s77.167 42 126.5 42s88.833 -13.833 118.5 -41.5s44.5 -66.167 44.5 -115.5c0 -36 -12 -72 -36 -108s-52.667 -63.667 -86 -83l83 -106c23.333 31.333 44.333 63.333 63 96h103c-30 -60.667 -64.333 -118 -103 -172l124 -154h-118
l-70 86c-34 -32.667 -65.667 -56.334 -95 -71.001c-35.333 -18 -74 -27 -116 -27c-48 0 -88.833 14.333 -122.5 43s-50.5 66.667 -50.5 114c0 44 17.667 85 53 123c22 23.333 58.333 51.666 109 84.999c-32 41.333 -53.333 74.666 -64 99.999s-16 50.333 -16 75z
M243 405.003l16 12.002c22 17.333 37.667 32.666 47 45.999c12.667 18 19 39 19 63c0 21.333 -6.16699 38.5 -18.5 51.5s-29.5 19.5 -51.5 19.5c-21.333 0 -39.333 -7 -54 -21s-22 -32 -22 -54c0 -12.667 8.33301 -35.334 25 -68.001s29.667 -49 39 -49zM215 285.005
c-37.333 -24 -63 -42.667 -77 -56c-27.333 -26 -41 -53.667 -41 -83c0 -19.333 8.33301 -35.5 25 -48.5s35 -19.5 55 -19.5c26 0 52.333 8 79 24c21.333 12.667 43.333 30.667 66 54z" />
    <glyph glyph-name="quotesingle" unicode="'" horiz-adv-x="205" 
d="M183 690c-32 -48.667 -48 -101.668 -48 -159.001v-4c34.667 -11.333 52 -33.333 52 -66c0 -20 -7.16699 -37.5 -21.5 -52.5s-31.166 -22.5 -50.499 -22.5c-28.667 0 -50.167 10.833 -64.5 32.5s-21.5 47.834 -21.5 78.501c0 43.333 13.333 84.333 40 123
c21.333 30.667 52.666 62 93.999 94z" />
    <glyph glyph-name="parenleft" unicode="(" horiz-adv-x="322" 
d="M306 735c-50.667 -73.333 -87.167 -146.501 -109.5 -219.501s-33.5 -154.833 -33.5 -245.5c0 -86.667 11.333 -167 34 -241s59 -144.333 109 -211h-65c-60.667 79.333 -104.667 151.333 -132 216c-32.667 76.667 -49 159.334 -49 248.001c0 76.667 17.333 157 52 241
c32.667 78 75.667 148.667 129 212h65z" />
    <glyph glyph-name="parenright" unicode=")" horiz-adv-x="322" 
d="M127 283c0 86.667 -11.333 165.667 -34 237s-59 143 -109 215h65c60.667 -78.667 104.667 -150.667 132 -216c32.667 -78 49 -160.667 49 -248c0 -76.667 -16.833 -155.5 -50.5 -236.5s-77.167 -153.167 -130.5 -216.5l-65 -1c50 70 86.333 142.833 109 218.5
s34 158.167 34 247.5z" />
    <glyph glyph-name="asterisk" unicode="*" horiz-adv-x="483" 
d="M186 516l-73.0039 47.002c-35.333 23.333 -53 43 -53 59c0 26.667 14 40 42 40c14.667 0 33 -18 55 -54c28 -45.333 44.333 -70 49 -74c0 14 -5 42 -15 84c-5.33301 22.667 -8 40 -8 52c0 12.667 2.83301 23.167 8.5 31.5s14.834 12.5 27.501 12.5
c12 0 21.167 -4.83301 27.5 -14.5s9.5 -20.834 9.5 -33.501s-2.33301 -26.667 -7 -42c-7.33301 -25.333 -11.5 -40.166 -12.5 -44.499s-1.83301 -10.833 -2.5 -19.5s-1 -17 -1 -25c7.33301 6.66699 24 31.667 50 75c20 33.333 40.667 50 62 50
c10.667 0 18.834 -3.66699 24.501 -11s8.5 -16.333 8.5 -27c0 -15.333 -7 -28 -21 -38c-18.667 -10.667 -32.5 -18.334 -41.5 -23.001s-19.833 -11.667 -32.5 -21l-32 -24c12.667 0 40.334 5.33301 83.001 16c21.333 5.33301 38 8 50 8c12.667 0 23.834 -3 33.501 -9
s14.5 -15 14.5 -27s-4 -21.667 -12 -29s-18 -11 -30 -11c-14 0 -31.333 2.66699 -52 8c-46 12 -75 18 -87 18l96.5 -67.5c22.333 -16.333 33.5 -29.833 33.5 -40.5c0 -12 -3.16699 -22.167 -9.5 -30.5s-15.5 -12.5 -27.5 -12.5c-15.333 0 -35.666 18.333 -60.999 55l-51 78
c0 -13.333 5.33301 -43 16 -89c5.33301 -22.667 8 -40.667 8 -54c0 -11.333 -3.5 -20.833 -10.5 -28.5s-16.167 -11.5 -27.5 -11.5c-13.333 0 -22.666 5 -27.999 15s-8 22.333 -8 37c0 16.667 3.66699 40.5 11 71.5s11.666 51.833 12.999 62.5
c-2 -2 -18.333 -28.333 -49 -79c-22.667 -37.333 -43.667 -56 -63 -56c-24 0 -36 14 -36 42c0 10.667 11.333 24.334 34 41.001l94 67l-135 -27c-11.333 0 -21.5 3.16699 -30.5 9.5s-13.5 15.166 -13.5 26.499s3.5 21.166 10.5 29.499s16.167 12.5 27.5 12.5
c15.333 0 37.666 -4.16699 66.999 -12.5s51 -12.5 65 -12.5h9z" />
    <glyph glyph-name="plus" unicode="+" horiz-adv-x="644" 
d="M17 331h249v249h80v-249h251v-80h-251v-251h-80v251h-249v80z" />
    <glyph glyph-name="comma" unicode="," horiz-adv-x="222" 
d="M34 -161c32 43.333 48 94 48 152l-1 11c-18 8 -30.5 16.833 -37.5 26.5s-10.5 24.167 -10.5 43.5c0 18 6.83301 34.5 20.5 49.5s29.5 22.5 47.5 22.5c28 0 50.333 -11.667 67 -35c14.667 -20.667 22 -45.667 22 -75c0 -44 -13.667 -85.333 -41 -124
c-20.667 -29.333 -52 -60.333 -94 -93z" />
    <glyph glyph-name="hyphen" unicode="-" horiz-adv-x="342" 
d="M24 287h283v-98h-283v98z" />
    <glyph glyph-name="period" unicode="." horiz-adv-x="222" 
d="M104 136c22 0 40.5 -6.00098 55.5 -18.001s22.5 -28.667 22.5 -50c0 -20.667 -6.33301 -38.667 -19 -54s-29 -23 -49 -23c-22 0 -40.5 6.83301 -55.5 20.5s-22.5 31.834 -22.5 54.501c0 18 6.83301 34.167 20.5 48.5s29.5 21.5 47.5 21.5z" />
    <glyph glyph-name="slash" unicode="/" horiz-adv-x="301" 
d="M217 706h82l-235 -706h-82z" />
    <glyph glyph-name="zero" unicode="0" 
d="M246 719c74.667 0 131 -42.667 169 -128c29.333 -66 44 -141.667 44 -227c0 -58 -5 -111 -15 -159c-13.333 -64 -34.333 -114 -63 -150c-35.333 -44.667 -81.333 -67 -138 -67c-80.667 0 -140 46.333 -178 139c-28 68 -42 149.333 -42 244c0 89.333 15 165 45 227
c38.667 80.667 98 121 178 121zM246 83c49.333 0 82.667 35.001 100 105.001c10 39.333 15 94 15 164c0 67.333 -5.66699 122.666 -17 165.999c-18.667 72 -52 108 -100 108c-49.333 0 -84 -34.667 -104 -104c-12.667 -44.667 -19 -99.667 -19 -165
c0 -69.333 6 -125 18 -167c20 -71.333 55.667 -107 107 -107z" />
    <glyph glyph-name="one" unicode="1" 
d="M269 706h48v-706h-94v555l-137 -121l-40 84z" />
    <glyph glyph-name="two" unicode="2" 
d="M7 12l114.999 141.999c52 66.667 91.333 124.334 118 173.001c36 65.333 54 120.666 54 165.999c0 36.667 -11.5 67.167 -34.5 91.5s-52.833 36.5 -89.5 36.5c-20 0 -41 -4.66699 -63 -14c-27.333 -12 -58.333 -32.333 -93 -61v107c21.333 20 46.833 36 76.5 48
s59.167 18 88.5 18c66 0 118.667 -22 158 -66s59 -99.333 59 -166c0 -41.333 -11.667 -87.666 -35 -138.999c-19.333 -42.667 -46.666 -89.667 -81.999 -141c-24.667 -36 -54.667 -75.333 -90 -118h263v-89h-445v12z" />
    <glyph glyph-name="three" unicode="3" 
d="M54 129c25.333 -14 47.332 -24.667 65.999 -32c26 -10 50 -15 72 -15c38 0 68.5 10.5 91.5 31.5s34.5 50.167 34.5 87.5c0 48 -15.667 81 -47 99c-20 11.333 -57.333 20 -112 26v86c42.667 0 75.667 7.66699 99 23c28 18.667 42 48.334 42 89.001
c0 30 -10.167 54.167 -30.5 72.5s-45.833 27.5 -76.5 27.5c-24 0 -48 -4 -72 -12c-11.333 -4 -33.666 -13.667 -66.999 -29l1 98l76 25c28.667 8.66699 55 13 79 13c54 0 98.833 -16.833 134.5 -50.5s53.5 -77.5 53.5 -131.5c0 -41.333 -9.66699 -75 -29 -101
c-16.667 -22 -45 -43 -85 -63c38 -8.66699 69.333 -28.834 94 -60.501s37 -67.5 37 -107.5c0 -64 -17.333 -115.667 -52 -155c-36.667 -42 -86.667 -63 -150 -63c-27.333 0 -53.833 3.5 -79.5 10.5s-52.167 17.5 -79.5 31.5v100z" />
    <glyph glyph-name="four" unicode="4" 
d="M5 248l345 471h33v-433h88v-83h-88v-203h-91v203h-287v45zM292 286l2 228c-22 -38 -53.667 -86 -95 -144l-61 -84h154z" />
    <glyph glyph-name="five" unicode="5" 
d="M49 137c25.333 -18.667 49.502 -32.501 72.502 -41.501s49.167 -13.5 78.5 -13.5c42 0 74.833 11.5 98.5 34.5s35.5 55.167 35.5 96.5c0 42 -13.5 74 -40.5 96s-62.167 33 -105.5 33c-19.333 0 -33.833 -0.5 -43.5 -1.5s-27.167 -3.5 -52.5 -7.5v373h317v-94h-226
l-1 -184l36 1c65.333 0 117.166 -19.5 155.499 -58.5s57.5 -91.833 57.5 -158.5c0 -67.333 -21 -121.666 -63 -162.999s-97.333 -62 -166 -62c-24.667 0 -50.334 4.5 -77.001 13.5s-52 20.5 -76 34.5v102z" />
    <glyph glyph-name="six" unicode="6" 
d="M375 649c-56 -36.667 -102.168 -77.167 -138.501 -121.5s-68.833 -98.5 -97.5 -162.5c36.667 27.333 77.334 41 122.001 41c58.667 0 106.667 -19.667 144 -59s56 -88.666 56 -147.999c0 -63.333 -19.833 -114.5 -59.5 -153.5s-91.5 -58.5 -155.5 -58.5
c-68.667 0 -123.667 25 -165 75c-38.667 46.667 -58 105.667 -58 177c0 75.333 21.333 153.666 64 234.999c40 76 90.667 141 152 195c10 8.66699 22.667 18.167 38 28.5l44 29.5zM122.999 213c0 -38.667 11.668 -70.333 35.001 -95s54 -37 92 -37c33.333 0 61 10.333 83 31
s33 48 33 82c0 35.333 -10.333 64.333 -31 87s-48.334 34 -83.001 34c-26 0 -49.333 -5.66699 -70 -17c-17.333 -9.33301 -36.333 -24.666 -57 -45.999c-1.33301 -6.66699 -2 -13.834 -2 -21.501v-17.5z" />
    <glyph glyph-name="seven" unicode="7" 
d="M19 706h434v-23l-300 -696l-89 46l259 580h-304v93z" />
    <glyph glyph-name="eight" unicode="8" 
d="M38 512c0 55.333 19.333 103.668 58 145.001s85.334 62 140.001 62c57.333 0 106.833 -19.167 148.5 -57.5s62.5 -86.166 62.5 -143.499c0 -69.333 -29.667 -121.333 -89 -156c34 -14.667 59.167 -36.334 75.5 -65.001s24.5 -62.334 24.5 -101.001
c0 -58 -21 -107.333 -63 -148s-92 -61 -150 -61c-60.667 0 -112.834 20.5 -156.501 61.5s-65.5 91.833 -65.5 152.5c0 75.333 35.333 129 106 161c-60.667 30.667 -91 80.667 -91 150zM246 404.002c32 0 57.667 10.666 77 31.999s29 48.333 29 81c0 32 -10 58.333 -30 79
s-46 31 -78 31s-59 -11 -81 -33s-33 -49.333 -33 -82c0 -31.333 11.167 -57.166 33.5 -77.499s49.833 -30.5 82.5 -30.5zM242 82.001c35.333 0 64.502 10.832 87.502 32.499s34.5 50.167 34.5 85.5c0 34.667 -11.667 63.334 -35 86.001s-52.333 34 -87 34
s-64.334 -11 -89.001 -33s-37 -50 -37 -84c0 -34.667 12.167 -63.5 36.5 -86.5s54.166 -34.5 89.499 -34.5z" />
    <glyph glyph-name="nine" unicode="9" 
d="M107 57c53.333 32 100 72.334 140 121.001s72 103 96 163c-36.667 -27.333 -78 -41 -124 -41c-58 0 -105.333 20 -142 60s-55 89.333 -55 148c0 63.333 20.167 114.166 60.5 152.499s92.5 57.5 156.5 57.5c66.667 0 120.667 -25.333 162 -76
c38.667 -47.333 58 -105.333 58 -174c0 -76 -21.333 -154.667 -64 -236c-40 -76.667 -91 -141.667 -153 -195c-10.667 -9.33301 -23.667 -19.333 -39 -30l-42 -28zM231 390.001c22 0 45.499 5.5 70.499 16.5s43.5 25.167 55.5 42.5l3 42c0 38.667 -11.667 70.667 -35 96
s-53.666 38 -90.999 38c-36 0 -64.5 -11.5 -85.5 -34.5s-31.5 -52.5 -31.5 -88.5c0 -32 11 -58.667 33 -80s49 -32 81 -32z" />
    <glyph glyph-name="colon" unicode=":" horiz-adv-x="262" 
d="M164 476c18 0 33.167 -7.50098 45.5 -22.501s18.5 -32.167 18.5 -51.5s-6.5 -36.166 -19.5 -50.499s-28.833 -21.5 -47.5 -21.5c-22 0 -40.5 6.83301 -55.5 20.5s-22.5 31.167 -22.5 52.5c0 24 7.5 42.167 22.5 54.5s34.5 18.5 58.5 18.5zM152 136.999
c18.667 0 36.001 -5.83203 52.001 -17.499s24 -26.834 24 -45.501v-21c0 -15.333 -7.83301 -29.5 -23.5 -42.5s-31.5 -19.5 -47.5 -19.5c-20.667 0 -38.334 6.66699 -53.001 20s-22 30 -22 50c0 20.667 6.5 38.5 19.5 53.5s29.833 22.5 50.5 22.5z" />
    <glyph glyph-name="semicolon" unicode=";" horiz-adv-x="262" 
d="M157 475c19.333 0 35.667 -6.66699 49 -20s20 -29.666 20 -48.999c0 -20.667 -7 -38 -21 -52s-31.667 -21 -53 -21c-17.333 0 -33.333 6.66699 -48 20s-22 28.666 -22 45.999c0 21.333 7 39.333 21 54s32 22 54 22zM83.001 -159c17.333 28 29.833 54.5 37.5 79.5
s11.5 52.833 11.5 83.5c-17.333 6.66699 -30.333 15.667 -39 27s-13 26 -13 44c0 18.667 6.66699 35 20 49s29.666 21 48.999 21c28.667 0 50.667 -10.833 66 -32.5s23 -47.5 23 -77.5c0 -44 -13.333 -85 -40 -123c-21.333 -30.667 -52.666 -61.667 -93.999 -93z" />
    <glyph glyph-name="less" unicode="&#x3c;" horiz-adv-x="551" 
d="M527 446l-425 -193l425 -193v-68l-508 230v62l508 230v-68z" />
    <glyph glyph-name="equal" unicode="=" horiz-adv-x="644" 
d="M-32 239h666v-78h-666v78zM-32 420h666v-78h-666v78z" />
    <glyph glyph-name="greater" unicode="&#x3e;" horiz-adv-x="551" 
d="M25 60l425 193l-425 193v68l508 -230v-62l-508 -230v68z" />
    <glyph glyph-name="question" unicode="?" horiz-adv-x="322" 
d="M203 546c0 24 -8.16797 42.332 -24.501 54.999s-37.166 19 -62.499 19l-18 -1l62 99c46.667 -12.667 81.667 -30.334 105 -53.001c28 -26.667 42 -62.667 42 -108c0 -37.333 -12.167 -76.666 -36.5 -117.999l-71.5 -118c-26 -46 -39 -88 -39 -126l-16 -10
c-14.667 15.333 -26.167 31.5 -34.5 48.5s-12.5 35.167 -12.5 54.5c0 30 17.667 71.333 53 124s53 97.334 53 134.001zM88.999 67.999c0 17.333 7.5 33.167 22.5 47.5s31.5 21.5 49.5 21.5c20 0 37 -7 51 -21s21 -31 21 -51c0 -23.333 -7.16699 -41.5 -21.5 -54.5
s-33.5 -19.5 -57.5 -19.5c-18 0 -33.333 8 -46 24s-19 33.667 -19 53z" />
    <glyph glyph-name="at" unicode="@" horiz-adv-x="1015" 
d="M529 500c-42.667 0 -79.335 -22.333 -110.002 -67c-27.333 -40 -41 -82.667 -41 -128c0 -27.333 7.33301 -50.333 22 -69s35.334 -28 62.001 -28c40.667 0 76.334 23.667 107.001 71c28 43.333 42 86.333 42 129c0 23.333 -7.83301 44.5 -23.5 63.5
s-35.167 28.5 -58.5 28.5zM661.999 556l69 0.00390625l-73 -246c-4.66699 -17.333 -8.83398 -33.833 -12.501 -49.5s-5.5 -25.834 -5.5 -30.501c0 -8 0.833008 -14.833 2.5 -20.5s7.83398 -8.5 18.501 -8.5c40 0 74.667 26.667 104 80c25.333 46.667 38 92 38 136
c0 78 -26.667 140.5 -80 187.5s-119.666 70.5 -198.999 70.5c-88 0 -160.667 -31 -218 -93s-86 -137.667 -86 -227c0 -88 29.667 -162 89 -222s133.666 -90 222.999 -90c46.667 0 91.5 10 134.5 30s78.833 48 107.5 84h67c-32.667 -54.667 -76.667 -97.667 -132 -129
s-115.333 -47 -180 -47c-106.667 0 -197 36.667 -271 110s-111 163.333 -111 270c0 103.333 36.833 191.833 110.5 265.5s162.5 110.5 266.5 110.5c92.667 0 172.334 -28.333 239.001 -85c70 -60 105 -135.667 105 -227c0 -67.333 -22.667 -131 -68 -191
c-49.333 -65.333 -106.333 -98 -171 -98c-18.667 0 -34 5.66699 -46 17s-18 26.666 -18 45.999c-17.333 -18.667 -36.5 -33.834 -57.5 -45.501s-42.5 -17.5 -64.5 -17.5c-42.667 0 -77.834 15.833 -105.501 47.5s-41.5 69.167 -41.5 112.5c0 70 20.667 132.333 62 187
c44.667 59.333 101 89 169 89c26 0 48.833 -6.83301 68.5 -20.5s35.167 -32.834 46.5 -57.501z" />
    <glyph glyph-name="A" unicode="A" horiz-adv-x="644" 
d="M244 706h86l304 -706h-112l-95 224h-263l-86 -224h-110zM387 316l-98 248l-91 -248h189z" />
    <glyph glyph-name="B" unicode="B" horiz-adv-x="544" 
d="M46 706l153.999 0.000976562c70.667 0 125.334 -13.333 164.001 -40c46 -31.333 69 -81 69 -149c0 -70.667 -31.667 -120 -95 -148c51.333 -8.66699 90.5 -26.834 117.5 -54.501s40.5 -67.167 40.5 -118.5c0 -70.667 -27.667 -122.667 -83 -156
c-44.667 -26.667 -105 -40 -181 -40h-186v706zM392.999 194.001c0 36.667 -9.33301 63.667 -28 81c-22 20.667 -65.667 31 -131 31l-90 -1v-212h6l83 -2c61.333 0 103.333 9.16699 126 27.5s34 43.5 34 75.5zM190.999 402.001c44.667 0 77.334 6.66699 98.001 20
c27.333 17.333 41 47 41 89c0 31.333 -10.333 55.333 -31 72s-47.334 25 -80.001 25h-75v-206h47z" />
    <glyph glyph-name="C" unicode="C" horiz-adv-x="644" 
d="M602 552c-42.667 24.667 -78.334 42 -107.001 52c-36 12.667 -75 19 -117 19c-76 0 -139.5 -26.167 -190.5 -78.5s-76.5 -116.5 -76.5 -192.5c0 -77.333 24.333 -141.333 73 -192s111.334 -76 188.001 -76c40.667 0 81.5 6.66699 122.5 20s80.167 32 117.5 56l-1 -112
c-50.667 -22.667 -90 -38 -118 -46c-39.333 -11.333 -81 -17 -125 -17c-106 0 -193 35 -261 105s-102 158.333 -102 265c0 102 35.5 188.5 106.5 259.5s157.167 106.5 258.5 106.5c47.333 0 87.333 -4.33301 120 -13s70 -24.667 112 -48v-108z" />
    <glyph glyph-name="D" unicode="D" horiz-adv-x="704" 
d="M38 706l200.998 -0.000976562c118.667 0 214.334 -26.333 287.001 -79c82 -59.333 123 -146.666 123 -261.999c0 -100 -27 -181.833 -81 -245.5s-130 -101.167 -228 -112.5c-26.667 -2.66699 -51.167 -4.5 -73.5 -5.5s-51.166 -1.5 -86.499 -1.5h-142v706z
M263.998 94.999c84 0 150.667 21 200 63c53.333 45.333 80 109 80 191c0 83.333 -24.333 147.333 -73 192s-115 67 -199 67h-134v-513h126z" />
    <glyph glyph-name="E" unicode="E" horiz-adv-x="483" 
d="M50 706h380v-94h-278v-214h271v-94h-271v-212h290v-92h-392v706z" />
    <glyph glyph-name="F" unicode="F" horiz-adv-x="442" 
d="M52 706h364v-95h-264v-188h264v-92h-264v-331h-100v706z" />
    <glyph glyph-name="G" unicode="G" horiz-adv-x="704" 
d="M616 540c-40 20.667 -70.001 35.3311 -90.001 43.998c-57.333 25.333 -111 38 -161 38c-71.333 0 -132.166 -25.833 -182.499 -77.5s-75.5 -113.5 -75.5 -185.5c0 -79.333 25.833 -145.166 77.5 -197.499s116.834 -78.5 195.501 -78.5c20 0 37.5 1.5 52.5 4.5
s45.5 12.167 91.5 27.5v146h-130v87h222v-304c-50.667 -20 -91.667 -34 -123 -42c-42 -10.667 -85 -16 -129 -16c-104.667 0 -191.167 35.833 -259.5 107.5s-102.5 159.834 -102.5 264.501c0 102.667 35 188.667 105 258s156.333 104 259 104
c45.333 0 88.666 -6.66699 129.999 -20c29.333 -9.33301 69.333 -27 120 -53v-107z" />
    <glyph glyph-name="H" unicode="H" horiz-adv-x="685" 
d="M39 706h100v-306h357v306h101v-706h-101v306h-357v-306h-100v706z" />
    <glyph glyph-name="I" unicode="I" horiz-adv-x="241" 
d="M63 706h99v-706h-99v706z" />
    <glyph glyph-name="J" unicode="J" horiz-adv-x="241" 
d="M-54 -108c44.667 0 73.667 11.999 87 35.999c9.33301 16.667 14 49.334 14 98.001v680h100v-662c0 -85.333 -9.66699 -145 -29 -179c-27.333 -47.333 -80.333 -71 -159 -71l-18 1l-25 100z" />
    <glyph glyph-name="K" unicode="K" horiz-adv-x="624" 
d="M43 706h103v-313l264 313h131l-288 -335l390 -371h-147l-350 339v-339h-103v706z" />
    <glyph glyph-name="L" unicode="L" horiz-adv-x="483" 
d="M50 706h101v-611h313v-95h-414v706z" />
    <glyph glyph-name="M" unicode="M" horiz-adv-x="745" 
d="M37 706h90l222 -292l220 292h88v-706h-99v489c0 12 0.166992 23.5 0.5 34.5s1.83301 23.167 4.5 36.5l-207 -289h-17l-207 289c3.33301 -33.333 5 -63 5 -89v-471h-100v706z" />
    <glyph glyph-name="N" unicode="N" horiz-adv-x="745" 
d="M37 706l82.002 0.000976562l356 -429c29.333 -34.667 48.666 -58.334 57.999 -71.001c5.33301 -7.33301 15.666 -23 30.999 -47c0 20.667 -1 51.667 -3 93s-3 72.333 -3 93v361h99v-706h-83l-353 427c-32 39.333 -62 80.333 -90 123c0 -20.667 0.833008 -48.5 2.5 -83.5
s2.5 -56.167 2.5 -63.5v-403h-99v706z" />
    <glyph glyph-name="O" unicode="O" horiz-adv-x="805" 
d="M367 720c108.667 0 198.666 -35.666 269.999 -106.999s107 -161 107 -269c0 -98.667 -36.667 -183 -110 -253s-159.666 -105 -258.999 -105c-104 0 -193.167 34.667 -267.5 104s-111.5 155.333 -111.5 258c0 105.333 35.333 193.666 106 264.999s159 107 265 107z
M375.999 84.001c72 0 134.333 26 187 78s79 114.333 79 187c0 76.667 -25.833 141.167 -77.5 193.5s-115.5 78.5 -191.5 78.5c-75.333 0 -139.833 -25.833 -193.5 -77.5s-80.5 -114.834 -80.5 -189.501c0 -75.333 27.167 -139.166 81.5 -191.499s119.5 -78.5 195.5 -78.5z
" />
    <glyph glyph-name="P" unicode="P" 
d="M48 706h229.001c61.333 0 111.166 -17.5 149.499 -52.5s57.5 -82.5 57.5 -142.5c0 -64 -17.333 -112 -52 -144c-28 -26 -70 -43 -126 -51c-32.667 -4.66699 -84.667 -7 -156 -7v-309h-102v706zM248.001 405c44 0 76.333 6.33301 97 19c26.667 16.667 40 45.667 40 87
c0 36 -12.667 62.333 -38 79c-22 14 -52 21 -90 21h-107v-206h98z" />
    <glyph glyph-name="Q" unicode="Q" horiz-adv-x="785" 
d="M621 -40c22 0 40.999 1.1709 56.999 3.50391s33 6.5 51 12.5l-98 -108c-55.333 11.333 -109.333 26 -162 44c-39.333 13.333 -91.666 34.166 -156.999 62.499s-104.666 45.833 -117.999 52.5c-39.333 20 -71.333 42.333 -96 67c-29.333 29.333 -53.333 66.333 -72 111
c-8 20 -14.667 41.833 -20 65.5s-8 46.5 -8 68.5c0 105.333 36.167 195.166 108.5 269.499s160.833 111.5 265.5 111.5c99.333 0 186.333 -36 261 -108s112 -157.333 112 -256c0 -88.667 -23.333 -163.334 -70 -224.001s-112.667 -102.334 -198 -125.001
c22 -12 46.667 -22.833 74 -32.5s50.666 -14.5 69.999 -14.5zM363.999 78.0039c78 0 144.165 25.834 198.498 77.501s81.5 116.5 81.5 194.5c0 75.333 -27.167 138.833 -81.5 190.5s-119.5 77.5 -195.5 77.5c-73.333 0 -136.166 -26.833 -188.499 -80.5
s-78.5 -117.834 -78.5 -192.501c0 -70 26.333 -132 79 -186s114.334 -81 185.001 -81z" />
    <glyph glyph-name="R" unicode="R" horiz-adv-x="563" 
d="M46 706l134.999 -0.000976562c74.667 0 133.334 -12.333 176.001 -37c54 -31.333 81 -81.666 81 -150.999c0 -42.667 -9.5 -79.334 -28.5 -110.001s-47.833 -53.667 -86.5 -69c33.333 -19.333 65.666 -51 96.999 -95c14.667 -20.667 40.334 -62.667 77.001 -126
c32 -55.333 58.667 -94.666 80 -117.999h-132l-57 103c-43.333 71.333 -73 116.333 -89 135c-42 48.667 -87.667 73 -137 73h-14v-311h-102v706zM222.999 404.999c32.667 0 59.5 9.16699 80.5 27.5s31.5 43.833 31.5 76.5c0 40.667 -16.667 68.667 -50 84
c-24 11.333 -58.667 17 -104 17h-33v-205h75z" />
    <glyph glyph-name="S" unicode="S" horiz-adv-x="483" 
d="M35 173c39.333 -31.333 68.668 -52.332 88.001 -62.999c36 -20.667 70.667 -31 104 -31c29.333 0 53 10 71 30s27 44.667 27 74c0 36 -24.667 71.667 -74 107l-138 95c-49.333 43.333 -74 93.333 -74 150c0 55.333 18.167 100.166 54.5 134.499s82.5 51.5 138.5 51.5
c28 0 55 -4 81 -12c19.333 -6 44.666 -16.333 75.999 -31v-109c-24.667 16 -48 28.667 -70 38c-28.667 12 -54.667 18 -78 18c-30 0 -54.167 -7.83301 -72.5 -23.5s-27.5 -38.5 -27.5 -68.5c0 -30.667 24.667 -63.667 74 -99c92 -65.333 138.333 -98.333 139 -99
c50 -45.333 75 -95 75 -149c0 -60 -18.833 -108.5 -56.5 -145.5s-86.5 -55.5 -146.5 -55.5c-33.333 0 -67 7 -101 21c-25.333 10 -55.333 26.667 -90 50v117z" />
    <glyph glyph-name="T" unicode="T" horiz-adv-x="563" 
d="M-28 706h562v-94h-229v-612h-103v612h-230v94z" />
    <glyph glyph-name="U" unicode="U" horiz-adv-x="704" 
d="M37 706l100.001 0.00195312v-417c0 -64 15.167 -113.167 45.5 -147.5s77.166 -51.5 140.499 -51.5c71.333 0 122.333 19.333 153 58c28 34.667 42 88.667 42 162v396h100v-442c0 -90.667 -26.5 -159.834 -79.5 -207.501s-125.5 -71.5 -217.5 -71.5
c-94 0 -164.833 27.167 -212.5 81.5s-71.5 129.166 -71.5 224.499v415z" />
    <glyph glyph-name="V" unicode="V" horiz-adv-x="604" 
d="M78 706l165 -406l31 -81l61 163l63 162l65 162h111l-285 -706h-33l-286 706h108z" />
    <glyph glyph-name="W" unicode="W" horiz-adv-x="1026" 
d="M65 706l62.999 -167c27.333 -70.667 48.333 -127 63 -169c24 -67.333 43 -124 57 -170c19.333 73.333 47.333 158.333 84 255l97 251h84l144 -368l25 -66c9.33301 -24.667 16 -47 20 -67c14.667 48.667 32.667 103.667 54 165l62 172.5l61 163.5h111l-268 -706h-33
l-77 184c-37.333 90 -62.333 151.667 -75 185c-20.667 54 -42.667 116.667 -66 188c-17.333 -54 -38.666 -116.333 -63.999 -187c-14 -39.333 -37.333 -101 -70 -185l-72 -185h-33l-283 706h116z" />
    <glyph glyph-name="X" unicode="X" horiz-adv-x="704" 
d="M259 358l-273 348h129l208 -266l213 266h129l-276 -348l284 -358h-128l-222 277l-226 -277h-132z" />
    <glyph glyph-name="Y" unicode="Y" horiz-adv-x="583" 
d="M94 706l168 -236l168 236h124l-243 -333v-373h-101v373l-239 333h123z" />
    <glyph glyph-name="Z" unicode="Z" horiz-adv-x="624" 
d="M400 610h-402v96h593l-440 -612h421v-94h-613z" />
    <glyph glyph-name="bracketleft" unicode="[" horiz-adv-x="322" 
d="M71 735h235v-86h-139v-746h139v-85h-235v917z" />
    <glyph glyph-name="backslash" unicode="\" horiz-adv-x="278" 
d="M-17 737h66l246 -756h-67z" />
    <glyph glyph-name="bracketright" unicode="]" horiz-adv-x="322" 
d="M-15 -96h139v746h-139v85h235v-917h-235v86z" />
    <glyph glyph-name="asciicircum" unicode="^" horiz-adv-x="0" 
d="M-85 894h166l88 -123h-88l-84 70l-82 -70h-89z" />
    <glyph glyph-name="underscore" unicode="_" horiz-adv-x="556" 
d="M0 -125v50h556v-50h-556z" />
    <glyph glyph-name="grave" unicode="`" horiz-adv-x="0" 
d="M-15 670l68 -159h-68l-111 159h111z" />
    <glyph glyph-name="a" unicode="a" horiz-adv-x="403" 
d="M229 292c0 27.333 -4.99902 48.667 -14.999 64c-12.667 18.667 -32 28 -58 28c-22 0 -47.333 -7.66699 -76 -23c-22 -11.333 -44.333 -26.666 -67 -45.999l1 95c22.667 18 48.334 32.5 77.001 43.5s56.667 16.5 84 16.5c57.333 0 97.666 -21.333 120.999 -64
c17.333 -32 26 -79.333 26 -142c0 -14.667 -0.666992 -38.834 -2 -72.501s-2 -51.167 -2 -52.5c0 -14 1 -27 3 -39s7.33301 -19 16 -21l47 16v-68c-20 -12 -38.667 -21.5 -56 -28.5s-35.333 -10.5 -54 -10.5c-8.66699 0 -17.167 3.83301 -25.5 11.5
s-14.5 15.834 -18.5 24.501c-20.667 -10.667 -37.667 -18.667 -51 -24c-20 -8 -38.333 -12 -55 -12c-40.667 0 -72.334 9.66699 -95.001 29c-24.667 21.333 -37 52.333 -37 93c0 43.333 29.667 80.666 89 111.999c32.667 17.333 82 35.333 148 54v16zM229.001 219.001
c-37.333 -9.33301 -66.666 -20 -87.999 -32c-35.333 -20 -53 -43.667 -53 -71c0 -14.667 5.66699 -27.667 17 -39s24.666 -17 39.999 -17c13.333 0 27.666 3.33301 42.999 10c18.667 9.33301 32.334 16 41.001 20v129z" />
    <glyph glyph-name="b" unicode="b" 
d="M39 706h95v-280c38 29.333 80 44 126 44c58 0 105.667 -22.333 143 -67c35.333 -42 53 -93 53 -153c0 -81.333 -22.333 -145.333 -67 -192s-108 -70 -190 -70c-21.333 0 -42.333 2 -63 6s-53 14 -97 30v682zM206 80c45.333 0 82.667 15.333 112 46s44 68.667 44 114
c0 41.333 -10 75 -30 101c-22 28.667 -53 43 -93 43c-22.667 0 -45.334 -5.33301 -68.001 -16c-5.33301 -2.66699 -17.666 -9.66699 -36.999 -21v-259c25.333 -5.33301 49.333 -8 72 -8z" />
    <glyph glyph-name="c" unicode="c" horiz-adv-x="403" 
d="M377 339c-14.667 11.333 -34.6689 21.001 -60.002 29.001s-48 12 -68 12c-46.667 0 -82.167 -15 -106.5 -45s-36.5 -68.667 -36.5 -116c0 -42 13.333 -76 40 -102s61 -39 103 -39c24 0 46.333 4 67 12s43.334 19.667 68.001 35v-95
c-20.667 -14.667 -43 -25.334 -67 -32.001s-49.333 -10 -76 -10c-66.667 0 -121.834 23.833 -165.501 71.5s-65.5 105.167 -65.5 172.5c0 68.667 21.833 125.5 65.5 170.5s99.834 67.5 168.501 67.5c22.667 0 45.334 -3.33301 68.001 -10c5.33301 -1.33301 27 -9 65 -23v-98
z" />
    <glyph glyph-name="d" unicode="d" 
d="M326 706l94.999 0.000976562v-706h-95l-1 25c-14.667 -10.667 -32.5 -19.5 -53.5 -26.5s-40.5 -10.5 -58.5 -10.5c-68 0 -120.667 24.333 -158 73c-34 44 -51 101 -51 171c0 68 17.667 124 53 168c38.667 48 91.334 72 158.001 72c18.667 0 37 -2.83301 55 -8.5
s36.667 -13.834 56 -24.501v267zM325.999 354.001c-24.667 24.667 -55.667 37.001 -93 37.001c-44.667 0 -78.167 -15.667 -100.5 -47s-33.5 -70.333 -33.5 -117c0 -42.667 11 -78.334 33 -107.001c24.667 -32 58 -48 100 -48c14 0 30.667 3.16699 50 9.5s34 13.833 44 22.5
v250z" />
    <glyph glyph-name="e" unicode="e" horiz-adv-x="463" 
d="M103 216c0 -42 13.498 -75.499 40.498 -100.499s62.833 -37.5 107.5 -37.5c32.667 0 66.334 8 101.001 24c6 2.66699 25 12.667 57 30v-93c-36 -17.333 -63.333 -29.333 -82 -36c-29.333 -10 -59 -15 -89 -15c-70.667 0 -127 23.5 -169 70.5s-63 106.5 -63 178.5
c0 61.333 18.833 115.333 56.5 162s86.834 70 147.501 70c69.333 0 122.333 -25.667 159 -77c32 -44.667 48 -103.334 48 -176.001h-314zM324.998 285.001c-6.66699 30 -19 54.167 -37 72.5s-41.667 27.5 -71 27.5c-30 0 -54.667 -9 -74 -27s-32 -42.333 -38 -73h220z" />
    <glyph glyph-name="f" unicode="f" horiz-adv-x="262" 
d="M-13 459l69.999 0.000976562c0 82.667 7.33301 140.667 22 174c24 54.667 71.667 82 143 82c12 0 25.167 -1.83301 39.5 -5.5s28.5 -8.5 42.5 -14.5v-86c-23.333 9.33301 -39.666 15.166 -48.999 17.499s-19.333 3.5 -30 3.5c-30 0 -51 -12.333 -63 -37
c-8.66699 -18 -13 -43.667 -13 -77l2 -57h90v-78h-90v-381h-94v381h-70v78z" />
    <glyph glyph-name="g" unicode="g" horiz-adv-x="423" 
d="M36 69c0 14 5.33203 26.333 15.999 37c6.66699 6.66699 26.667 17.667 60 33c-35.333 18.667 -61.333 39 -78 61c-20 26 -30 57.667 -30 95c0 52 17.167 93.333 51.5 124s77.833 46 130.5 46c22.667 0 57 -1 103 -3s80.667 -3 104 -3v-82h-69
c9.33301 -12.667 16.5 -26.334 21.5 -41.001s7.5 -29.334 7.5 -44.001c0 -66.667 -36.833 -116.5 -110.5 -149.5s-110.5 -55.5 -110.5 -67.5c0 -13.333 22 -25.333 66 -36c61.333 -14.667 102.333 -27.667 123 -39c44.667 -24 67 -59.333 67 -106
c0 -52.667 -22 -93 -66 -121c-37.333 -24 -83.666 -36 -138.999 -36c-54 0 -100.333 10.333 -139 31c-49.333 26 -74 63.667 -74 113c0 34.667 9.16699 63 27.5 85s44.833 37 79.5 45c-11.333 4.66699 -21 12.334 -29 23.001s-12 22.334 -12 35.001zM179.999 202
c27.333 0 48.502 9 63.502 27s22.5 41 22.5 69c0 26 -8.33301 48 -25 66s-38.334 27 -65.001 27c-24.667 0 -44.834 -9.33301 -60.501 -28s-23.5 -40.667 -23.5 -66c0 -28.667 7.66699 -51.667 23 -69s37 -26 65 -26zM171.001 -182c32 0 58.667 3.66797 80 11.001
c32.667 11.333 49 29.666 49 54.999c0 26 -13 44.667 -39 56c-18 8 -42.333 12 -73 12c-36 0 -63.333 -3 -82 -9c-32 -10.667 -48 -29.667 -48 -57c0 -24 13.333 -42 40 -54c20.667 -9.33301 45 -14 73 -14z" />
    <glyph glyph-name="h" unicode="h" 
d="M39 706l95.001 0.000976562v-294c27.333 20 47.666 33.333 60.999 40c22 10.667 46 16 72 16c57.333 0 99.333 -20.667 126 -62c22.667 -34.667 34 -82.334 34 -143.001v-263h-94l-1 252c0 54.667 -7.33301 89.667 -22 105s-37.667 23 -69 23
c-13.333 0 -29 -3.5 -47 -10.5s-38 -20.167 -60 -39.5v-330h-95v706z" />
    <glyph glyph-name="i" unicode="i" horiz-adv-x="222" 
d="M54 459h95v-459h-95v459zM103 622c16 0 29.166 -5.83301 39.499 -17.5s15.5 -25.5 15.5 -41.5c0 -17.333 -6 -31 -18 -41s-26.667 -15 -44 -15c-15.333 0 -28.166 5.5 -38.499 16.5s-15.5 24.5 -15.5 40.5c0 16.667 5.83301 30.5 17.5 41.5s26.167 16.5 43.5 16.5z" />
    <glyph glyph-name="j" unicode="j" horiz-adv-x="222" 
d="M49 459l94.999 0.000976562l-1 -529c0 -48 -8.66699 -85.5 -26 -112.5s-47.666 -52.833 -90.999 -77.5l-57 78c28.667 11.333 49.167 27.666 61.5 48.999s18.5 48 18.5 80v512zM105.999 623.001c13.333 0 24.833 -6.16602 34.5 -18.499s14.5 -25.5 14.5 -39.5
c0 -15.333 -5.5 -28.833 -16.5 -40.5s-24.167 -17.5 -39.5 -17.5c-16 0 -30.167 5.16699 -42.5 15.5s-18.5 23.833 -18.5 40.5c0 19.333 6.16699 34.166 18.5 44.499s28.833 15.5 49.5 15.5z" />
    <glyph glyph-name="k" unicode="k" horiz-adv-x="483" 
d="M40 706h95v-451l180 204h123l-198 -219l250 -240h-139l-216 214v-214h-95v706z" />
    <glyph glyph-name="l" unicode="l" horiz-adv-x="222" 
d="M54 706h94v-706h-94v706z" />
    <glyph glyph-name="m" unicode="m" horiz-adv-x="764" 
d="M26 459l95.002 -0.000976562v-40c22.667 16 42.667 27.667 60 35c22 9.33301 45 14 69 14c27.333 0 51.166 -5.66699 71.499 -17s39.833 -28.666 58.5 -51.999c22 22 45.5 39 70.5 51s51.833 18 80.5 18c57.333 0 98.666 -23.667 123.999 -71
c19.333 -36 29 -85.333 29 -148v-249h-95v261c0 45.333 -7.66699 77 -23 95c-12.667 15.333 -31.334 23 -56.001 23c-20.667 0 -40 -5 -58 -15c-9.33301 -5.33301 -25.666 -17.333 -48.999 -36v-328h-95v251c0 47.333 -6.66699 80.5 -20 99.5s-32 28.5 -56 28.5
c-20.667 0 -40 -4.33301 -58 -13s-35.667 -21 -53 -37v-329h-95v459z" />
    <glyph glyph-name="n" unicode="n" 
d="M39 459h95.001v-40c19.333 15.333 39.333 27.333 60 36s42.334 13 65.001 13c68 0 114.667 -22.667 140 -68c18.667 -33.333 28 -87.333 28 -162v-238h-94v245c0 44 -4 75 -12 93c-12.667 28 -38.334 42 -77.001 42c-18.667 0 -38.334 -5 -59.001 -15
c-16.667 -8 -33.667 -19.333 -51 -34v-331h-95v459z" />
    <glyph glyph-name="o" unicode="o" horiz-adv-x="544" 
d="M254 470c66 0 122.166 -24.1689 168.499 -72.502s69.5 -105.833 69.5 -172.5c0 -67.333 -24.667 -123.666 -74 -168.999s-107.666 -68 -174.999 -68c-63.333 0 -119 24 -167 72s-72 103.667 -72 167c0 70.667 24 128.834 72 174.501s107.333 68.5 178 68.5z
M245.999 77.998c42.667 0 79.333 14.667 110 44s46 65 46 107c0 41.333 -15 77 -45 107s-65.667 45 -107 45c-43.333 0 -80.5 -14.833 -111.5 -44.5s-46.5 -66.167 -46.5 -109.5c0 -39.333 15.667 -74 47 -104s67 -45 107 -45z" />
    <glyph glyph-name="p" unicode="p" 
d="M39 459h95.999v-27c15.333 12.667 33 22.167 53 28.5s41 9.5 63 9.5c64.667 0 115.667 -23.667 153 -71c34.667 -44 52 -99.333 52 -166c0 -69.333 -16.667 -126.333 -50 -171c-37.333 -50 -89.333 -75 -156 -75c-43.333 0 -81.666 12 -114.999 36v-281h-96v717z
M232.999 72c42.667 0 75.3311 16.667 97.998 50c20 29.333 30 66.333 30 111c0 42 -10.333 77.333 -31 106c-23.333 32 -55.666 48 -96.999 48c-16 0 -33 -3 -51 -9s-33.667 -14 -47 -24v-249c20.667 -12 37.334 -20.5 50.001 -25.5s28.667 -7.5 48 -7.5z" />
    <glyph glyph-name="q" unicode="q" horiz-adv-x="483" 
d="M329 459h95v-717h-95v277c-34 -20.667 -68.333 -31 -103 -31c-69.333 0 -124 23.333 -164 70c-37.333 43.333 -56 100.333 -56 171c0 66 17 121.667 51 167c37.333 49.333 88 74 152 74c45.333 0 85.333 -13 120 -39v28zM329 354c-12.667 8 -28.501 15.5 -47.501 22.5
s-35.5 10.5 -49.5 10.5c-42 0 -74.5 -14.333 -97.5 -43s-34.5 -64.667 -34.5 -108c0 -47.333 10 -85.333 30 -114c23.333 -34 58 -51 104 -51c32.667 0 64.334 11.333 95.001 34v249z" />
    <glyph glyph-name="r" unicode="r" horiz-adv-x="363" 
d="M46 459h94.998v-72c10 18.667 27 36.834 51 54.501s46 26.5 66 26.5c20.667 0 40.334 -4.66699 59.001 -14c12 -6 29 -17.333 51 -34l-57 -86c-12 11.333 -22.333 19.666 -31 24.999c-14 8.66699 -26.667 13 -38 13c-37.333 0 -64.666 -19 -81.999 -57
c-12.667 -28 -19 -63.333 -19 -106v-209h-95v459z" />
    <glyph glyph-name="s" unicode="s" horiz-adv-x="363" 
d="M18 134c26.667 -18 49.667 -31.334 69 -40.001c28.667 -13.333 54.667 -20 78 -20c16 0 29 3 39 9s15 16.667 15 32c0 20.667 -32.667 51 -98 91s-98 85 -98 135c0 40 12.833 71.5 38.5 94.5s58.5 34.5 98.5 34.5c22 0 44 -3.16699 66 -9.5s43.333 -15.5 64 -27.5l1 -99
c-16 12.667 -36.667 24.167 -62 34.5s-47.333 15.5 -66 15.5c-12 0 -22.5 -3 -31.5 -9s-13.5 -15 -13.5 -27c0 -21.333 32.833 -51.833 98.5 -91.5s98.5 -84.5 98.5 -134.5c0 -40 -13.5 -72.5 -40.5 -97.5s-60.833 -37.5 -101.5 -37.5c-26.667 0 -52.5 3.83301 -77.5 11.5
s-50.833 18.834 -77.5 33.501v102z" />
    <glyph glyph-name="t" unicode="t" horiz-adv-x="301" 
d="M138 578v-119.002h128v-78l-129 -1c0 -27.333 -0.666992 -72.5 -2 -135.5s-2 -96.833 -2 -101.5c0 -17.333 4.5 -31.666 13.5 -42.999s22.167 -17 39.5 -17c16.667 0 37 5.33301 61 16c18.667 8 37.334 18.333 56.001 31v-101c-36 -15.333 -58.333 -24.666 -67 -27.999
c-24.667 -8.66699 -48.334 -13 -71.001 -13c-44.667 0 -78 17 -100 51c-18.667 28.667 -28 66.667 -28 114c0 26 0.666992 69.5 2 130.5s2 93.5 2 97.5h-56z" />
    <glyph glyph-name="u" unicode="u" 
d="M39 459h94.001v-233c0 -48.667 2.66699 -81 8 -97c11.333 -33.333 36.333 -50 75 -50c41.333 0 79.666 17 114.999 51v329h96v-459h-96l-1 40c-38.667 -32.667 -82.667 -49 -132 -49c-58 0 -100.333 22 -127 66c-21.333 35.333 -32 84.333 -32 147v255z" />
    <glyph glyph-name="v" unicode="v" horiz-adv-x="442" 
d="M81 459l117 -283l112 283h105l-202 -459h-30l-205 459h103z" />
    <glyph glyph-name="w" unicode="w" horiz-adv-x="724" 
d="M65 459l73.001 -179.999c19.333 -48.667 33 -85.334 41 -110.001l109 290l78 -1l56 -148l53 -141c17.333 49.333 35.666 98 54.999 146l59 144h104l-199 -459h-41l-68 156c-26.667 62.667 -46 116 -58 160c-18 -50 -38.667 -103 -62 -159l-66 -157h-42l-193 459h101z" />
    <glyph glyph-name="x" unicode="x" horiz-adv-x="523" 
d="M172 234l-181 225h120l123 -157l124 157h124l-184 -225l196 -234h-123l-137 164l-137 -164h-123z" />
    <glyph glyph-name="y" unicode="y" horiz-adv-x="463" 
d="M82 459l137 -304l132 304h105l-322 -717h-105l139 312l-191 405h105z" />
    <glyph glyph-name="z" unicode="z" horiz-adv-x="442" 
d="M242 370h-218v89h383l-245 -373h239v-86h-404z" />
    <glyph glyph-name="braceleft" unicode="{" horiz-adv-x="334" 
d="M42 294c36.667 0 60.665 22.333 71.998 67c5.33301 21.333 8 58.666 8 111.999l-1 43c0 62.667 3.66699 106.334 11 131.001c14.667 50 45.667 75 93 75h67v-65h-44c-18 0 -30.167 -8.33301 -36.5 -25s-9.5 -35.667 -9.5 -57v-113l-1 -57
c0 -28.667 -7.66699 -56.667 -23 -84c-17.333 -30.667 -38.666 -49.334 -63.999 -56.001c36.667 -12 61.667 -39.667 75 -83c8.66699 -28.667 13 -68 13 -118l-1 -87c0 -30 1.66699 -52 5 -66c6.66699 -28 20.667 -42 42 -42h44v-65h-67
c-31.333 0 -56.166 13.333 -74.499 40s-27.5 56.334 -27.5 89.001v171c0 31.333 -5.66699 59 -17 83c-14.667 31.333 -36 47 -64 47v60z" />
    <glyph glyph-name="bar" unicode="|" horiz-adv-x="260" 
d="M94 737h73v-756h-73v756z" />
    <glyph glyph-name="braceright" unicode="}" horiz-adv-x="334" 
d="M292 234c-27.333 0 -48.333 -15.6631 -63 -46.9961c-12 -25.333 -18 -53 -18 -83v-171c0 -33.333 -8.33301 -62.333 -25 -87c-19.333 -28 -45 -42 -77 -42h-67v65h44c20.667 0 34.334 13.667 41.001 41c3.33301 14 5 36.333 5 67l-1 86c0 50.667 4.33301 90 13 118
c13.333 43.333 38.666 70.666 75.999 81.999c-25.333 7.33301 -46.333 25.666 -63 54.999s-25 58 -25 86v171c0 22.667 -2.33301 40 -7 52c-7.33301 20 -20.333 30 -39 30h-44v65h67c42.667 0 72 -21.333 88 -64c10.667 -28 16 -70.333 16 -127
c0 -10.667 -0.166992 -20.834 -0.5 -30.501s-0.5 -18.834 -0.5 -27.501c0 -52.667 2.66699 -89.667 8 -111c11.333 -45.333 35.333 -68 72 -68v-60z" />
    <glyph glyph-name="asciitilde" unicode="~" horiz-adv-x="0" 
d="M-63 898c16.667 0 39.333 -8.00195 68 -24.002s50.667 -24 66 -24c9.33301 0 18 5 26 15s13.333 20.333 16 31l59 -22c-8 -27.333 -19 -48.666 -33 -63.999c-17.333 -19.333 -39 -29 -65 -29c-16.667 0 -35.667 5 -57 15c-47.333 22 -75.333 33 -84 33
c-10.667 0 -20.667 -6 -30 -18c-5.33301 -7.33301 -11 -18.333 -17 -33l-57 26c11.333 28.667 24.333 50.334 39 65.001c19.333 19.333 42.333 29 69 29z" />
    <glyph glyph-name="c128" horiz-adv-x="520" 
d="M419 500l-73 -130h158v-53h-187l-75 -134h262v-52h-290l-87 -155l-47 27l71 128h-151v52h181l74 134h-255v53h285l87 157z" />
    <glyph glyph-name="c129" horiz-adv-x="675" 
d="M508 388c36 0 67.3301 -13 93.9971 -39s40 -57.333 40 -94c0 -36 -12.5 -67.667 -37.5 -95s-55.167 -41 -90.5 -41c-36.667 0 -71.334 10.667 -104.001 32c-11.333 7.33301 -39.666 31 -84.999 71c-45.333 -40 -73.666 -63.667 -84.999 -71
c-32.667 -21.333 -67.667 -32 -105 -32c-35.333 0 -65.666 14 -90.999 42s-38 59.667 -38 95c0 36 13.667 67 41 93s59 39 95 39c31.333 0 64.333 -11.333 99 -34c18 -12 46 -35 84 -69c36.667 34 64.334 57 83.001 69c34.667 22.667 68 34 100 34zM141.997 338
c-23.333 0 -43.5 -8.83398 -60.5 -26.501s-25.5 -38.5 -25.5 -62.5c0 -23.333 9.16699 -43.166 27.5 -59.499s39.5 -24.5 63.5 -24.5c26.667 0 53.667 9.66699 81 29c10.667 8 32.667 27.667 66 59c-30 26 -53.333 44.333 -70 55c-30 20 -57.333 30 -82 30zM504.997 165.999
c24 0 45 7.83203 63 23.499s27 35.5 27 59.5c0 23.333 -8.33301 44 -25 62s-37 27 -61 27c-24.667 0 -52 -9.66699 -82 -29c-15.333 -10 -38.666 -28.667 -69.999 -56c30.667 -29.333 52.667 -48.666 66 -57.999c27.333 -19.333 54.666 -29 81.999 -29z" />
    <glyph glyph-name="c141" horiz-adv-x="579" 
d="M568 0h-578l307 660zM53 47h396l-187 449z" />
    <glyph glyph-name="c142" horiz-adv-x="468" 
d="M191 0l-187 362l187 353h57l186 -353l-186 -362h-57zM219 663l-157 -301l157 -310l158 310z" />
    <glyph glyph-name="c143" horiz-adv-x="646" 
 />
    <glyph glyph-name="nonbreakingspace" unicode="&#xa0;" horiz-adv-x="262" 
 />
    <glyph glyph-name="exclamdown" unicode="&#xa1;" horiz-adv-x="262" 
d="M119 493l32.999 -189.999c11.333 -65.333 17 -125.333 17 -180c0 -36 -2.66699 -63.333 -8 -82c-9.33301 -33.333 -27.333 -50 -54 -50c-23.333 0 -39.666 14.333 -48.999 43c-6 18 -9 41.667 -9 71c0 59.333 5 124.333 15 195c4 29.333 15 93.666 33 192.999h22z
M107.999 714.001c20.667 0 37.333 -7 50 -21s19 -31.667 19 -53c0 -18 -6.83301 -34.167 -20.5 -48.5s-29.5 -21.5 -47.5 -21.5c-19.333 0 -36.5 6.83301 -51.5 20.5s-22.5 30.167 -22.5 49.5c0 20.667 6.83301 38.167 20.5 52.5s31.167 21.5 52.5 21.5z" />
    <glyph glyph-name="cent" unicode="&#xa2;" horiz-adv-x="403" 
d="M384 30c-15.333 -10.667 -32.334 -19.3281 -51.001 -25.9951s-37.667 -11.334 -57 -14.001v-67h-53v66c-62.667 0 -114 24.167 -154 72.5s-60 105.166 -60 170.499s20 121.166 60 167.499s91.333 69.5 154 69.5v70h53v-71c17.333 -2.66699 38.333 -8.33398 63 -17.001
c17.333 -6.66699 30 -11.334 38 -14.001v-98c-13.333 10.667 -28.666 19.167 -45.999 25.5s-35.666 10.833 -54.999 13.5v-298c17.333 2.66699 35.166 8 53.499 16s36.5 17.667 54.5 29v-95zM222.999 81.0059l0.00195312 297.998
c-38.667 -5.33301 -67.834 -23.166 -87.501 -53.499s-29.5 -66.5 -29.5 -108.5c0 -35.333 10.667 -65.666 32 -90.999s49.666 -40.333 84.999 -45z" />
    <glyph glyph-name="sterling" unicode="&#xa3;" horiz-adv-x="563" 
d="M25 358l92 -0.999023c-20.667 43.333 -33.834 75.333 -39.501 96s-8.5 42.334 -8.5 65.001c0 58.667 20.833 106.5 62.5 143.5s91.834 55.5 150.501 55.5c60 0 108.667 -18.333 146 -55s60 -85.334 68 -146.001l-87 -29c0 40.667 -11 74.834 -33 102.501
s-53.333 41.5 -94 41.5c-32.667 0 -60 -10.333 -82 -31s-33 -47.334 -33 -80.001c0 -20 6.66699 -47.333 20 -82c5.33301 -13.333 17 -40 35 -80h158v-73h-131c2.66699 -9.33301 4.66699 -20.5 6 -33.5s2 -24.833 2 -35.5c0 -33.333 -9.66699 -63.666 -29 -90.999l66 -32
c29.333 -13.333 52.333 -20 69 -20c15.333 0 30 7.66699 44 23c8.66699 9.33301 18.667 23.666 30 42.999l74 -40c-12 -31.333 -31.5 -58.166 -58.5 -80.499s-56.5 -33.5 -88.5 -33.5c-23.333 0 -49.666 7 -78.999 21c-65.333 31.333 -105 47 -119 47
c-10.667 0 -20.5 -2.5 -29.5 -7.5s-17.5 -12.167 -25.5 -21.5c-2 -6.66699 -5.33301 -14.334 -10 -23.001s-7.66699 -14.334 -9 -17.001l-66 52c13.333 28 28.666 50 45.999 66c22 20 46.667 30 74 30c6.66699 12.667 12 25.5 16 38.5s6 25.5 6 37.5
c0 26 -7.33301 51.667 -22 77h-121v73z" />
    <glyph glyph-name="section" unicode="&#xa7;" horiz-adv-x="423" 
d="M55 554c0 42.667 14.668 80.4961 44.001 113.496s65.333 49.5 108 49.5c34 0 62.333 -6.66699 85 -20c27.333 -16 41 -40 41 -72c0 -17.333 -4.83301 -32.166 -14.5 -44.499s-23.167 -18.5 -40.5 -18.5c-21.333 0 -34.833 3.83301 -40.5 11.5s-8.5 20.834 -8.5 39.501v15
c0 4.66699 -3 8.16699 -9 10.5s-11.667 3.5 -17 3.5c-16.667 0 -31 -8.16699 -43 -24.5s-18 -33.5 -18 -51.5c0 -33.333 19.333 -72.333 58 -117l108 -123c39.333 -53.333 59 -105.666 59 -156.999c0 -21.333 -8 -46.333 -24 -75c-11.333 -20 -27 -42 -47 -66
c8.66699 -15.333 15.5 -31.333 20.5 -48s7.5 -33 7.5 -49c0 -43.333 -14.833 -81.166 -44.5 -113.499s-66.167 -48.5 -109.5 -48.5c-31.333 0 -59 7 -83 21c-28.667 16.667 -43 39.667 -43 69c0 18.667 5.66699 34.667 17 48s26 20 44 20c12.667 0 24.5 -4.16699 35.5 -12.5
s16.5 -18.833 16.5 -31.5c-2.66699 -10 -4 -17.667 -4 -23c0 -4 2.16699 -7.66699 6.5 -11s10.166 -5 17.499 -5c18 0 32.333 7.5 43 22.5s16 31.833 16 50.5c0 33.333 -19.167 72.166 -57.5 116.499l-112.5 129.5c-40.667 52.667 -61 100.334 -61 143.001
c0 28 7.33301 56.333 22 85c12 22.667 29.333 46.667 52 72c-16 30.667 -24 61 -24 91zM252.001 92.9961c14.667 19.333 23.833 33.833 27.5 43.5s5.5 21.5 5.5 35.5c0 17.333 -6 35.333 -18 54c-6 8.66699 -18.333 23.667 -37 45l-109 125
c-9.33301 -12 -17.333 -24.667 -24 -38s-10 -26.333 -10 -39c0 -34 30.667 -84 92 -150z" />
    <glyph glyph-name="dieresis" unicode="&#xa8;" horiz-adv-x="0" 
d="M-105 650c16.667 0 30.832 -5.5 42.499 -16.5s17.5 -24.5 17.5 -40.5c0 -18.667 -6 -33.667 -18 -45s-27.333 -17 -46 -17c-15.333 0 -28.166 5.83301 -38.499 17.5s-15.5 25.167 -15.5 40.5c0 17.333 5.5 31.833 16.5 43.5s24.833 17.5 41.5 17.5zM44.998 599
c0 12 5.83203 23.5 17.499 34.5s23.834 16.5 36.501 16.5h12c14.667 0 27.167 -6.5 37.5 -19.5s15.5 -26.833 15.5 -41.5s-5.33301 -28 -16 -40s-23.667 -18 -39 -18c-42.667 0 -64 22.667 -64 68z" />
    <glyph glyph-name="copyright" unicode="&#xa9;" horiz-adv-x="748" 
d="M501 497l4 -123h-19c-5.33301 29.333 -18.5 53.5 -39.5 72.5s-46.167 28.5 -75.5 28.5c-40 0 -72.333 -18 -97 -54c-22 -32 -33 -69 -33 -111c0 -44.667 10.833 -81 32.5 -109s54.167 -42 97.5 -42c27.333 0 48.666 3.5 63.999 10.5s35.666 20.833 60.999 41.5l11 -17
c-22 -23.333 -44.167 -40.833 -66.5 -52.5s-47.833 -17.5 -76.5 -17.5c-55.333 0 -100 17 -134 51s-51 78.667 -51 134c0 52.667 17 97.667 51 135s76.667 56 128 56c12.667 0 30.334 -3.16699 53.001 -9.5s39 -9.5 49 -9.5c12.667 0 20.334 5.33301 23.001 16h18zM359 648
c91.333 0 169.333 -32.333 234 -97s97 -142.667 97 -234c0 -92 -32.167 -170.167 -96.5 -234.5s-142.5 -96.5 -234.5 -96.5c-91.333 0 -169.333 32.333 -234 97s-97 142.667 -97 234s32.333 169.333 97 234s142.667 97 234 97zM359 24c80.667 0 149.667 28.667 207 86
s86 126.333 86 207s-28.667 149.667 -86 207s-126.333 86 -207 86s-149.667 -28.667 -207 -86s-86 -126.333 -86 -207s28.667 -149.667 86 -207s126.333 -86 207 -86z" />
    <glyph glyph-name="guillemotleft" unicode="&#xab;" horiz-adv-x="544" 
d="M382 429h112l-171 -202l168 -197h-109l-163 197zM171 429h109l-168 -202l164 -197h-105l-165 197z" />
    <glyph glyph-name="logicalnot" unicode="&#xac;" horiz-adv-x="675" 
d="M-4 276h639v-276h-53v224h-586v52z" />
    <glyph glyph-name="registered" unicode="&#xae;" horiz-adv-x="748" 
d="M358 -19c-91.333 0 -169.333 32.333 -234 97s-97 142.667 -97 234s32.333 169.333 97 234s142.667 97 234 97s169.333 -32.333 234 -97s97 -142.667 97 -234s-32.333 -169.333 -97 -234s-142.667 -97 -234 -97zM357 605c-81.333 0 -150.334 -28.668 -207.001 -86.001
s-85 -126.666 -85 -207.999s28.667 -150.333 86 -207s126.333 -85 207 -85s149.667 28.667 207 86s86 126.333 86 207s-28.667 149.667 -86 207s-126.666 86 -207.999 86zM307.999 189.999c0 -10.667 4.33301 -18.001 13 -22.001s19.334 -6 32.001 -6v-17h-153v17
c12 0 21.667 1.33301 29 4c12 4.66699 18 11.667 18 21v277c0 11.333 -1.83301 18.833 -5.5 22.5s-9.83398 5.5 -18.501 5.5h-18v18h164c35.333 0 64.333 -6 87 -18c29.333 -15.333 44 -39.333 44 -72c0 -27.333 -9.5 -50.166 -28.5 -68.499s-42.167 -27.5 -69.5 -27.5
l115 -148c8 -9.33301 19.667 -14 35 -14v-17h-91l-128 170h-25v-125zM307.999 336.998c34.667 0 62 4.00098 82 12.001c30 12 45 33 45 63c0 27.333 -5.83301 46.166 -17.5 56.499s-31.5 16.833 -59.5 19.5l-31 2c-5.33301 0 -10 -2 -14 -6s-6 -8.66699 -6 -14z" />
    <glyph glyph-name="degree" unicode="&#xb0;" horiz-adv-x="262" 
d="M128 370c-39.333 0 -73.166 13.832 -101.499 41.499s-42.5 61.5 -42.5 101.5s14 74 42 102s62 42 102 42c39.333 0 73.166 -14.167 101.499 -42.5s42.5 -62.166 42.5 -101.499s-14 -73 -42 -101s-62 -42 -102 -42zM127 617.999c-29.333 0 -54.167 -10.168 -74.5 -30.501
s-30.5 -45.166 -30.5 -74.499c0 -28.667 10.333 -53.334 31 -74.001s45.667 -31 75 -31s54.333 10 75 30s31 45 31 75c0 28.667 -10.667 53.334 -32 74.001s-46.333 31 -75 31z" />
    <glyph glyph-name="plusminus" unicode="&#xb1;" horiz-adv-x="520" 
d="M223 392v227h53v-227h227v-53h-227v-228h-53v228h-227v53h227zM-4 0v53h507v-53h-507z" />
    <glyph glyph-name="acute" unicode="&#xb4;" horiz-adv-x="0" 
d="M14 670h111l-105 -157h-71z" />
    <glyph glyph-name="mu" unicode="&#xb5;" horiz-adv-x="545" 
d="M126 480l-0.00195312 -318.998c0 -32 7.5 -58.333 22.5 -79s37.833 -31 68.5 -31c20 0 40.833 7.5 62.5 22.5s36.834 31.833 45.501 50.5v356h82v-369c0 -19.333 3.66699 -36.333 11 -51c10 -19.333 23.667 -29 41 -29c18 0 30.333 7.33301 37 22
c5.33301 20.667 10 35.667 14 45l19 -1c-7.33301 -33.333 -19.666 -59.666 -36.999 -78.999c-20.667 -22.667 -47.334 -34 -80.001 -34c-28 0 -48.667 9.33301 -62 28c-9.33301 12.667 -17 35 -23 67c-19.333 -27.333 -41 -49.333 -65 -66
c-28.667 -19.333 -57.667 -29 -87 -29c-16 0 -30 2.66699 -42 8c-2.66699 1.33301 -21 14.333 -55 39v-22c0 -18 5.16699 -44.167 15.5 -78.5s15.5 -59.5 15.5 -75.5c0 -16.667 -3.66699 -32.334 -11 -47.001s-18.666 -22 -33.999 -22s-27 7.16699 -35 21.5
s-12 29.833 -12 46.5c0 17.333 2.66699 36.666 8 57.999c12.667 51.333 19 83.666 19 96.999v471h82z" />
    <glyph glyph-name="paragraph" unicode="&#xb6;" horiz-adv-x="667" 
d="M539 706v-54h-34v-819h-58v819h-144v-819h-58v486c-49.333 8 -87.833 28.833 -115.5 62.5s-41.5 75.5 -41.5 125.5c0 64 20.5 113.167 61.5 147.5s94.167 51.5 159.5 51.5h230z" />
    <glyph glyph-name="periodcentered" unicode="&#xb7;" horiz-adv-x="164" 
d="M92 359c17.333 0 32.333 -6.66699 45 -20s19 -29 19 -47c0 -18.667 -6 -34.667 -18 -48s-27.667 -20 -47 -20c-20 0 -36.5 6.16699 -49.5 18.5s-19.5 28.5 -19.5 48.5s6.66699 36.333 20 49s30 19 50 19z" />
    <glyph glyph-name="periodcentered" unicode="&#x2219;" horiz-adv-x="164" 
d="M92 359c17.333 0 32.333 -6.66699 45 -20s19 -29 19 -47c0 -18.667 -6 -34.667 -18 -48s-27.667 -20 -47 -20c-20 0 -36.5 6.16699 -49.5 18.5s-19.5 28.5 -19.5 48.5s6.66699 36.333 20 49s30 19 50 19z" />
    <glyph glyph-name="cedilla" unicode="&#xb8;" horiz-adv-x="0" 
d="M-90 -164c4 -1.33301 9.83203 -1.99805 17.499 -1.99805s13.834 -0.333008 18.501 -1c16.667 0 33 4.33301 49 13s24 21 24 37c0 19.333 -13.333 32.666 -40 39.999c-9.33301 2.66699 -21.666 5 -36.999 7l37 83h64l-18 -45c26 -6 45.667 -15.167 59 -27.5
s20 -30.833 20 -55.5c0 -34.667 -17 -62.334 -51 -83.001c-28.667 -17.333 -61.334 -26 -98.001 -26l-45 3v57z" />
    <glyph glyph-name="guillemotright" unicode="&#xbb;" horiz-adv-x="544" 
d="M171 231l-168 198h107l165 -198l-165 -201h-111zM380 231l-163 198h105l166 -198l-166 -201h-110z" />
    <glyph glyph-name="questiondown" unicode="&#xbf;" horiz-adv-x="322" 
d="M157 511l16 9c31.333 -29.333 47 -63.666 47 -102.999c0 -29.333 -17.833 -70.833 -53.5 -124.5s-53.5 -97.167 -53.5 -130.5c0 -24 8.33301 -43 25 -57s37.667 -21 63 -21l18 2l-62 -97c-4.66699 0 -11 1.33301 -19 4c-41.333 15.333 -72 33.666 -92 54.999
c-24 26 -36 59.333 -36 100c0 38 12.667 79.333 38 124l70 114c26 46 39 87.667 39 125zM157 714c20 0 36.834 -7.16602 50.501 -21.499s20.5 -31.833 20.5 -52.5c0 -18.667 -7.33301 -35.334 -22 -50.001s-31.334 -22 -50.001 -22s-35.5 7.16699 -50.5 21.5
s-22.5 30.833 -22.5 49.5c0 22 6.66699 40 20 54s31.333 21 54 21z" />
    <glyph glyph-name="Agrave" unicode="&#xc0;" horiz-adv-x="644" 
d="M276 894l74 -125h-83l-156 125h165zM244 706h86l304 -706h-112l-95 224h-263l-86 -224h-110zM387 316l-98 248l-91 -248h189z" />
    <glyph glyph-name="Aacute" unicode="&#xc1;" horiz-adv-x="644" 
d="M304 894h161l-151 -125h-81zM244 706h86l304 -706h-112l-95 224h-263l-86 -224h-110zM387 316l-98 248l-91 -248h189z" />
    <glyph glyph-name="Acircumflex" unicode="&#xc2;" horiz-adv-x="644" 
d="M202 894h166l90 -123h-90l-82 70l-84 -70h-88zM244 706h86l304 -706h-112l-95 224h-263l-86 -224h-110zM387 316l-98 248l-91 -248h189z" />
    <glyph glyph-name="Atilde" unicode="&#xc3;" horiz-adv-x="644" 
d="M225 898c14.667 0 32.001 -5 52.001 -15c44 -22 72 -33 84 -33c9.33301 0 18 5.33301 26 16c6 8 11 18 15 30l58 -21c-6.66699 -27.333 -17.334 -49 -32.001 -65c-18 -19.333 -39.667 -29 -65 -29c-16.667 0 -35.667 5 -57 15c-46.667 22 -75 33 -85 33
s-19.667 -6 -29 -18c-6.66699 -8.66699 -12.667 -19.667 -18 -33l-57 26c12 29.333 25 51 39 65c18.667 19.333 41.667 29 69 29zM244.001 706h86l304 -706h-112l-95 224h-263l-86 -224h-110zM387.001 316l-98 248l-91 -248h189z" />
    <glyph glyph-name="Adieresis" unicode="&#xc4;" horiz-adv-x="644" 
d="M244 706h86l304 -706h-112l-95 224h-263l-86 -224h-110zM387 316l-98 248l-91 -248h189zM149 895c19.333 0 35.666 -6.66602 48.999 -19.999s20 -30 20 -50c0 -19.333 -6.66699 -35.333 -20 -48s-29.666 -19 -48.999 -19c-18 0 -33.667 6.66699 -47 20
s-20 28.666 -20 45.999c0 19.333 6.33301 36 19 50s28.667 21 48 21zM431 895.001c18 0 33.332 -6.99902 45.999 -20.999s19 -30 19 -48c0 -20 -6.66699 -36.333 -20 -49s-30 -19 -50 -19c-19.333 0 -35.166 7.16699 -47.499 21.5s-18.5 31.166 -18.5 50.499s7 35 21 47
s30.667 18 50 18z" />
    <glyph glyph-name="Aring" unicode="&#xc5;" horiz-adv-x="644" 
d="M244 706h86l304 -706h-112l-95 224h-263l-86 -224h-110zM387 316l-98 248l-91 -248h189zM290 925c26 0 48.167 -9.5 66.5 -28.5s27.5 -41.833 27.5 -68.5s-9.33301 -49.334 -28 -68.001s-41.667 -28 -69 -28c-26 0 -48.333 9.66699 -67 29s-28 42 -28 68
c0 26.667 9.66699 49.334 29 68.001s42.333 28 69 28zM290 779c13.333 0 24.667 4.66699 34 14s14 21 14 35c0 14.667 -4.66699 26.667 -14 36s-21.333 14 -36 14c-13.333 0 -25 -5 -35 -15s-15 -21.667 -15 -35c0 -14 5 -25.667 15 -35s22.333 -14 37 -14z" />
    <glyph glyph-name="AE" unicode="&#xc6;" horiz-adv-x="845" 
d="M352 706h425v-95h-277v-207h270v-94h-270v-217h286v-93h-386v310h-166l-173 -310h-117zM400 404v211l-114 -211h114z" />
    <glyph glyph-name="Ccedilla" unicode="&#xc7;" horiz-adv-x="644" 
d="M202 -164c4 -1.33301 9.83105 -2.00098 17.498 -2.00098s13.834 -0.333008 18.501 -1c16.667 0 32.334 4 47.001 12c18 10 27 22.667 27 38c0 16.667 -9.33301 28.667 -28 36c-6.66699 2.66699 -23 6.33398 -49 11.001l37 83h64l-17 -44
c26 -6.66699 44.667 -15.667 56 -27c14 -14 21 -33.667 21 -59c0 -34 -17 -61 -51 -81c-29.333 -17.333 -62 -26 -98 -26l-45 3v57zM601.998 551.999c-42.667 24.667 -78.334 42 -107.001 52c-36 12.667 -75 19 -117 19c-76 0 -139.5 -26.167 -190.5 -78.5
s-76.5 -116.5 -76.5 -192.5c0 -77.333 24.333 -141.333 73 -192s111.334 -76 188.001 -76c40.667 0 81.5 6.66699 122.5 20s80.167 32 117.5 56l-1 -112c-50.667 -22.667 -90 -38 -118 -46c-39.333 -11.333 -81 -17 -125 -17c-106 0 -193 35 -261 105s-102 158.333 -102 265
c0 102 35.5 188.5 106.5 259.5s157.167 106.5 258.5 106.5c47.333 0 87.333 -4.33301 120 -13s70 -24.667 112 -48v-108z" />
    <glyph glyph-name="Egrave" unicode="&#xc8;" horiz-adv-x="483" 
d="M215 894l74 -125h-84l-156 125h166zM53 706h380v-94h-278v-214h271v-94h-271v-212h290v-92h-392v706z" />
    <glyph glyph-name="Eacute" unicode="&#xc9;" horiz-adv-x="483" 
d="M238 894h163l-153 -125h-81zM50 706h380v-94h-278v-214h271v-94h-271v-212h290v-92h-392v706z" />
    <glyph glyph-name="Ecircumflex" unicode="&#xca;" horiz-adv-x="483" 
d="M138 894h166l89 -123h-89l-83 70l-83 -70h-89zM50 706h380v-94h-278v-214h271v-94h-271v-212h290v-92h-392v706z" />
    <glyph glyph-name="Edieresis" unicode="&#xcb;" horiz-adv-x="483" 
d="M91 895c19.333 0 35.667 -6.66699 49 -20s20 -30 20 -50c0 -19.333 -7 -35.333 -21 -48s-30.667 -19 -50 -19c-18.667 0 -34.167 6.83301 -46.5 20.5s-18.5 30.167 -18.5 49.5c0 18 6.66699 33.667 20 47s29 20 47 20zM372.001 895
c18.667 0 34.167 -6.83203 46.5 -20.499s18.5 -29.834 18.5 -48.501c0 -20 -6.33301 -36.333 -19 -49s-29 -19 -49 -19c-18 0 -33.667 7 -47 21s-20 30.333 -20 49c0 19.333 6.66699 35.333 20 48s30 19 50 19zM55.001 706.001h380v-94h-278v-214h271v-94h-271v-212h290v-92
h-392v706z" />
    <glyph glyph-name="Igrave" unicode="&#xcc;" horiz-adv-x="241" 
d="M93 894l74 -125h-84l-155 125h165zM56 706h99v-706h-99v706z" />
    <glyph glyph-name="Iacute" unicode="&#xcd;" horiz-adv-x="241" 
d="M134 894h162l-153 -125h-80zM70 706h99v-706h-99v706z" />
    <glyph glyph-name="Icircumflex" unicode="&#xce;" horiz-adv-x="241" 
d="M20 894h166l89 -123h-89l-83 70l-83 -70h-88zM57 706h99v-706h-99v706z" />
    <glyph glyph-name="Idieresis" unicode="&#xcf;" horiz-adv-x="241" 
d="M-37 895c19.333 0 35.667 -6.66602 49 -19.999s20 -30 20 -50c0 -19.333 -7 -35.333 -21 -48s-30.667 -19 -50 -19c-18.667 0 -34.167 7.16699 -46.5 21.5s-18.5 30.833 -18.5 49.5c0 17.333 6.66699 32.666 20 45.999s29 20 47 20zM244.001 895.001
c18.667 0 34.333 -6.66797 47 -20.001s19 -29.666 19 -48.999c0 -20 -6.66699 -36.333 -20 -49s-30 -19 -50 -19c-18 0 -33.5 6.83301 -46.5 20.5s-19.5 30.167 -19.5 49.5s6.66699 35.333 20 48s30 19 50 19zM52 706h99v-706h-99v706z" />
    <glyph glyph-name="Ntilde" unicode="&#xd1;" horiz-adv-x="745" 
d="M281 898c16.667 0 39.665 -7.99902 68.998 -23.999s51.666 -24 66.999 -24c10 0 19 5.33301 27 16c5.33301 7.33301 10.333 17.333 15 30l58 -22c-7.33301 -26.667 -18.333 -48 -33 -64c-17.333 -19.333 -38.666 -29 -63.999 -29c-16.667 0 -35.667 5 -57 15
c-47.333 22 -75.666 33 -84.999 33c-10 0 -19.167 -5.33301 -27.5 -16s-14.833 -22.334 -19.5 -35.001l-57 26c11.333 28 24.333 49.667 39 65c18.667 19.333 41.334 29 68.001 29zM36.998 706.001l82.002 0.000976562l356 -429
c29.333 -34.667 48.666 -58.334 57.999 -71.001c5.33301 -7.33301 15.666 -23 30.999 -47c0 20.667 -1 51.667 -3 93s-3 72.333 -3 93v361h99v-706h-83l-353 427c-32 39.333 -62 80.333 -90 123c0 -20.667 0.833008 -48.5 2.5 -83.5s2.5 -56.167 2.5 -63.5v-403h-99v706z
" />
    <glyph glyph-name="Ograve" unicode="&#xd2;" horiz-adv-x="805" 
d="M355 894l75 -125h-85l-155 125h165zM367 720c108.667 0 198.666 -35.666 269.999 -106.999s107 -161 107 -269c0 -98.667 -36.667 -183 -110 -253s-159.666 -105 -258.999 -105c-104 0 -193.167 34.667 -267.5 104s-111.5 155.333 -111.5 258
c0 105.333 35.333 193.666 106 264.999s159 107 265 107zM375.999 84.001c72 0 134.333 26 187 78s79 114.333 79 187c0 76.667 -25.833 141.167 -77.5 193.5s-115.5 78.5 -191.5 78.5c-75.333 0 -139.833 -25.833 -193.5 -77.5s-80.5 -114.834 -80.5 -189.501
c0 -75.333 27.167 -139.166 81.5 -191.499s119.5 -78.5 195.5 -78.5z" />
    <glyph glyph-name="Oacute" unicode="&#xd3;" horiz-adv-x="805" 
d="M383 894h161l-152 -125h-80zM367 720c108.667 0 198.666 -35.666 269.999 -106.999s107 -161 107 -269c0 -98.667 -36.667 -183 -110 -253s-159.666 -105 -258.999 -105c-104 0 -193.167 34.667 -267.5 104s-111.5 155.333 -111.5 258
c0 105.333 35.333 193.666 106 264.999s159 107 265 107zM375.999 84.001c72 0 134.333 26 187 78s79 114.333 79 187c0 76.667 -25.833 141.167 -77.5 193.5s-115.5 78.5 -191.5 78.5c-75.333 0 -139.833 -25.833 -193.5 -77.5s-80.5 -114.834 -80.5 -189.501
c0 -75.333 27.167 -139.166 81.5 -191.499s119.5 -78.5 195.5 -78.5z" />
    <glyph glyph-name="Ocircumflex" unicode="&#xd4;" horiz-adv-x="805" 
d="M282 894h166l88 -123h-88l-84 70l-82 -70h-89zM367 720c108.667 0 198.666 -35.666 269.999 -106.999s107 -161 107 -269c0 -98.667 -36.667 -183 -110 -253s-159.666 -105 -258.999 -105c-104 0 -193.167 34.667 -267.5 104s-111.5 155.333 -111.5 258
c0 105.333 35.333 193.666 106 264.999s159 107 265 107zM375.999 84.001c72 0 134.333 26 187 78s79 114.333 79 187c0 76.667 -25.833 141.167 -77.5 193.5s-115.5 78.5 -191.5 78.5c-75.333 0 -139.833 -25.833 -193.5 -77.5s-80.5 -114.834 -80.5 -189.501
c0 -75.333 27.167 -139.166 81.5 -191.499s119.5 -78.5 195.5 -78.5z" />
    <glyph glyph-name="Otilde" unicode="&#xd5;" horiz-adv-x="805" 
d="M303 898c16.667 0 39.666 -8.00098 68.999 -24.001s51.333 -24 66 -24c9.33301 0 18 5 26 15s13.333 20.333 16 31l59 -22c-7.33301 -26.667 -18.333 -48 -33 -64c-18 -19.333 -39.333 -29 -64 -29c-16.667 0 -35.667 5 -57 15c-47.333 22 -75.333 33 -84 33
c-9.33301 0 -17.333 -3.33301 -24 -10c-2 -2 -10 -15.667 -24 -41l-57 26c11.333 28.667 24.333 50.334 39 65.001c18.667 19.333 41.334 29 68.001 29zM366.999 719.999c108.667 0 198.666 -35.666 269.999 -106.999s107 -161 107 -269c0 -98.667 -36.667 -183 -110 -253
s-159.666 -105 -258.999 -105c-104 0 -193.167 34.667 -267.5 104s-111.5 155.333 -111.5 258c0 105.333 35.333 193.666 106 264.999s159 107 265 107zM375.998 84c72 0 134.333 26 187 78s79 114.333 79 187c0 76.667 -25.833 141.167 -77.5 193.5
s-115.5 78.5 -191.5 78.5c-75.333 0 -139.833 -25.833 -193.5 -77.5s-80.5 -114.834 -80.5 -189.501c0 -75.333 27.167 -139.166 81.5 -191.499s119.5 -78.5 195.5 -78.5z" />
    <glyph glyph-name="Odieresis" unicode="&#xd6;" horiz-adv-x="805" 
d="M367 720c108.667 0 198.666 -35.666 269.999 -106.999s107 -161 107 -269c0 -98.667 -36.667 -183 -110 -253s-159.666 -105 -258.999 -105c-104 0 -193.167 34.667 -267.5 104s-111.5 155.333 -111.5 258c0 105.333 35.333 193.666 106 264.999s159 107 265 107z
M375.999 84.001c72 0 134.333 26 187 78s79 114.333 79 187c0 76.667 -25.833 141.167 -77.5 193.5s-115.5 78.5 -191.5 78.5c-75.333 0 -139.833 -25.833 -193.5 -77.5s-80.5 -114.834 -80.5 -189.501c0 -75.333 27.167 -139.166 81.5 -191.499s119.5 -78.5 195.5 -78.5z
M229.999 895.001c19.333 0 35.667 -6.66602 49 -19.999s20 -30 20 -50c0 -19.333 -7 -35.333 -21 -48s-30.667 -19 -50 -19s-35 7 -47 21s-18 30.667 -18 50c0 17.333 6.66699 32.666 20 45.999s29 20 47 20zM512 895.002c14.667 0 29.166 -5.83008 43.499 -17.4971
s21.5 -24.834 21.5 -39.501v-26c0 -14.667 -7.66699 -27.334 -23 -38.001s-30.666 -16 -45.999 -16c-18.667 0 -34.5 7.16699 -47.5 21.5s-19.5 31.166 -19.5 50.499c0 18 7.16699 33.333 21.5 46s30.833 19 49.5 19z" />
    <glyph glyph-name="Oslash" unicode="&#xd8;" horiz-adv-x="805" 
d="M653 731l43.001 -37.001l-67 -78c35.333 -31.333 63.166 -70.333 83.499 -117s30.5 -94 30.5 -142c0 -107.333 -34.667 -196 -104 -266s-158 -105 -266 -105c-49.333 0 -90 6 -122 18c-16.667 6 -52.667 25 -108 57l-69 -76l-43 35l68 78l-14 16
c-28.667 34.667 -50.5 71 -65.5 109s-22.5 79 -22.5 123c0 106.667 35.5 195.834 106.5 267.501s159.833 107.5 266.5 107.5c43.333 0 81.333 -5.33301 114 -16c26.667 -8.66699 61 -26 103 -52zM371.001 82.999c79.333 0 143.834 25.833 193.501 77.5
s74.5 117.834 74.5 198.501c0 32.667 -6.83301 65.667 -20.5 99s-31.834 61.666 -54.501 84.999l-356 -408c29.333 -18.667 55.833 -32 79.5 -40s51.5 -12 83.5 -12zM520.002 577.999c-28.667 16 -53.334 27.333 -74.001 34s-45.667 10 -75 10c-78 0 -142.667 -26 -194 -78
s-77 -117.333 -77 -196c0 -32.667 5.33301 -62.5 16 -89.5s27.334 -54.833 50.001 -83.5z" />
    <glyph glyph-name="Ugrave" unicode="&#xd9;" horiz-adv-x="704" 
d="M313 894l75 -125h-84l-155 125h164zM37 706l100.001 0.00195312v-417c0 -64 15.167 -113.167 45.5 -147.5s77.166 -51.5 140.499 -51.5c71.333 0 122.333 19.333 153 58c28 34.667 42 88.667 42 162v396h100v-442c0 -90.667 -26.5 -159.834 -79.5 -207.501
s-125.5 -71.5 -217.5 -71.5c-94 0 -164.833 27.167 -212.5 81.5s-71.5 129.166 -71.5 224.499v415z" />
    <glyph glyph-name="Uacute" unicode="&#xda;" horiz-adv-x="704" 
d="M341 894h162l-153 -125h-80zM37 706l100.001 0.00195312v-417c0 -64 15.167 -113.167 45.5 -147.5s77.166 -51.5 140.499 -51.5c71.333 0 122.333 19.333 153 58c28 34.667 42 88.667 42 162v396h100v-442c0 -90.667 -26.5 -159.834 -79.5 -207.501
s-125.5 -71.5 -217.5 -71.5c-94 0 -164.833 27.167 -212.5 81.5s-71.5 129.166 -71.5 224.499v415z" />
    <glyph glyph-name="Ucircumflex" unicode="&#xdb;" horiz-adv-x="704" 
d="M240 894h166l89 -123h-89l-83 70l-83 -70h-88zM37 706l100.001 0.00195312v-417c0 -64 15.167 -113.167 45.5 -147.5s77.166 -51.5 140.499 -51.5c71.333 0 122.333 19.333 153 58c28 34.667 42 88.667 42 162v396h100v-442c0 -90.667 -26.5 -159.834 -79.5 -207.501
s-125.5 -71.5 -217.5 -71.5c-94 0 -164.833 27.167 -212.5 81.5s-71.5 129.166 -71.5 224.499v415z" />
    <glyph glyph-name="Udieresis" unicode="&#xdc;" horiz-adv-x="704" 
d="M37 706l100.001 0.00195312v-417c0 -64 15.167 -113.167 45.5 -147.5s77.166 -51.5 140.499 -51.5c71.333 0 122.333 19.333 153 58c28 34.667 42 88.667 42 162v396h100v-442c0 -90.667 -26.5 -159.834 -79.5 -207.501s-125.5 -71.5 -217.5 -71.5
c-94 0 -164.833 27.167 -212.5 81.5s-71.5 129.166 -71.5 224.499v415zM189.001 895.002c19.333 0 35.333 -6.66602 48 -19.999s19 -30 19 -50c0 -19.333 -7 -35.333 -21 -48s-30.667 -19 -50 -19c-18.667 0 -34.167 7.16699 -46.5 21.5s-18.5 30.833 -18.5 49.5
c0 17.333 7 32.666 21 45.999s30 20 48 20zM469.001 895.003c18 0 33.5 -6.83203 46.5 -20.499s19.5 -29.834 19.5 -48.501c0 -20.667 -6.16699 -36.5 -18.5 -47.5s-29.166 -17.833 -50.499 -20.5c-20.667 5.33301 -36.334 12.333 -47.001 21
c-13.333 10.667 -20 25.667 -20 45c0 20.667 6.66699 37.667 20 51s30 20 50 20z" />
    <glyph glyph-name="germandbls" unicode="&#xdf;" 
d="M39 498c0 70 17.002 123.665 51.002 160.998s85.667 56 155 56c53.333 0 96.166 -16.167 128.499 -48.5s48.5 -75.166 48.5 -128.499c0 -69.333 -29.667 -118.666 -89 -147.999c45.333 -23.333 75.833 -46.666 91.5 -69.999s23.5 -59.333 23.5 -108
c0 -60 -15.333 -110.667 -46 -152c-34 -46 -80 -69 -138 -69c-13.333 0 -26.666 1 -39.999 3s-24 3.66699 -32 5v97c7.33301 -3.33301 16.166 -6.33301 26.499 -9s19.833 -4 28.5 -4c35.333 0 62.666 13 81.999 39c17.333 23.333 26 53.666 26 90.999
c0 47.333 -14.667 82 -44 104c-26 19.333 -63.333 29 -112 29v81c38.667 0 68.667 7.66699 90 23c24.667 18 37 45.667 37 83c0 28.667 -7.83301 51.5 -23.5 68.5s-37.834 25.5 -66.501 25.5c-43.333 0 -72.666 -17.333 -87.999 -52c-10 -22.667 -15 -59 -15 -109v-466h-94
v498z" />
    <glyph glyph-name="agrave" unicode="&#xe0;" horiz-adv-x="403" 
d="M161 670l69 -159h-69l-110 159h110zM229 292c0 27.333 -4.99902 48.667 -14.999 64c-12.667 18.667 -32 28 -58 28c-22 0 -47.333 -7.66699 -76 -23c-22 -11.333 -44.333 -26.666 -67 -45.999l1 95c22.667 18 48.334 32.5 77.001 43.5s56.667 16.5 84 16.5
c57.333 0 97.666 -21.333 120.999 -64c17.333 -32 26 -79.333 26 -142c0 -14.667 -0.666992 -38.834 -2 -72.501s-2 -51.167 -2 -52.5c0 -14 1 -27 3 -39s7.33301 -19 16 -21l47 16v-68c-20 -12 -38.667 -21.5 -56 -28.5s-35.333 -10.5 -54 -10.5
c-8.66699 0 -17.167 3.83301 -25.5 11.5s-14.5 15.834 -18.5 24.501c-20.667 -10.667 -37.667 -18.667 -51 -24c-20 -8 -38.333 -12 -55 -12c-40.667 0 -72.334 9.66699 -95.001 29c-24.667 21.333 -37 52.333 -37 93c0 43.333 29.667 80.666 89 111.999
c32.667 17.333 82 35.333 148 54v16zM229.001 219.001c-37.333 -9.33301 -66.666 -20 -87.999 -32c-35.333 -20 -53 -43.667 -53 -71c0 -14.667 5.66699 -27.667 17 -39s24.666 -17 39.999 -17c13.333 0 27.666 3.33301 42.999 10c18.667 9.33301 32.334 16 41.001 20v129z
" />
    <glyph glyph-name="aacute" unicode="&#xe1;" horiz-adv-x="403" 
d="M191 670h111l-104 -157h-71zM229 292c0 27.333 -4.99902 48.667 -14.999 64c-12.667 18.667 -32 28 -58 28c-22 0 -47.333 -7.66699 -76 -23c-22 -11.333 -44.333 -26.666 -67 -45.999l1 95c22.667 18 48.334 32.5 77.001 43.5s56.667 16.5 84 16.5
c57.333 0 97.666 -21.333 120.999 -64c17.333 -32 26 -79.333 26 -142c0 -14.667 -0.666992 -38.834 -2 -72.501s-2 -51.167 -2 -52.5c0 -14 1 -27 3 -39s7.33301 -19 16 -21l47 16v-68c-20 -12 -38.667 -21.5 -56 -28.5s-35.333 -10.5 -54 -10.5
c-8.66699 0 -17.167 3.83301 -25.5 11.5s-14.5 15.834 -18.5 24.501c-20.667 -10.667 -37.667 -18.667 -51 -24c-20 -8 -38.333 -12 -55 -12c-40.667 0 -72.334 9.66699 -95.001 29c-24.667 21.333 -37 52.333 -37 93c0 43.333 29.667 80.666 89 111.999
c32.667 17.333 82 35.333 148 54v16zM229.001 219.001c-37.333 -9.33301 -66.666 -20 -87.999 -32c-35.333 -20 -53 -43.667 -53 -71c0 -14.667 5.66699 -27.667 17 -39s24.666 -17 39.999 -17c13.333 0 27.666 3.33301 42.999 10c18.667 9.33301 32.334 16 41.001 20v129z
" />
    <glyph glyph-name="acircumflex" unicode="&#xe2;" horiz-adv-x="403" 
d="M126 670h99l118 -158h-75l-93 86l-93 -86h-72zM229 292c0 27.333 -4.99902 48.667 -14.999 64c-12.667 18.667 -32 28 -58 28c-22 0 -47.333 -7.66699 -76 -23c-22 -11.333 -44.333 -26.666 -67 -45.999l1 95c22.667 18 48.334 32.5 77.001 43.5s56.667 16.5 84 16.5
c57.333 0 97.666 -21.333 120.999 -64c17.333 -32 26 -79.333 26 -142c0 -14.667 -0.666992 -38.834 -2 -72.501s-2 -51.167 -2 -52.5c0 -14 1 -27 3 -39s7.33301 -19 16 -21l47 16v-68c-20 -12 -38.667 -21.5 -56 -28.5s-35.333 -10.5 -54 -10.5
c-8.66699 0 -17.167 3.83301 -25.5 11.5s-14.5 15.834 -18.5 24.501c-20.667 -10.667 -37.667 -18.667 -51 -24c-20 -8 -38.333 -12 -55 -12c-40.667 0 -72.334 9.66699 -95.001 29c-24.667 21.333 -37 52.333 -37 93c0 43.333 29.667 80.666 89 111.999
c32.667 17.333 82 35.333 148 54v16zM229.001 219.001c-37.333 -9.33301 -66.666 -20 -87.999 -32c-35.333 -20 -53 -43.667 -53 -71c0 -14.667 5.66699 -27.667 17 -39s24.666 -17 39.999 -17c13.333 0 27.666 3.33301 42.999 10c18.667 9.33301 32.334 16 41.001 20v129z
" />
    <glyph glyph-name="atilde" unicode="&#xe3;" horiz-adv-x="403" 
d="M113 663c14 0 44 -11.667 90 -35c21.333 -10.667 37.333 -16 48 -16s20.334 8.33301 29.001 25c4.66699 10.667 8 18 10 22l61 -22c-14 -32 -25.333 -53.333 -34 -64c-16 -19.333 -37 -29 -63 -29c-17.333 0 -37 5 -59 15c-51.333 23.333 -78.333 35 -81 35
c-8.66699 0 -17.334 -3.83301 -26.001 -11.5s-17 -20.5 -25 -38.5l-57 27c14 30.667 27 52 39 64c18 18.667 40.667 28 68 28zM229 292c0 27.333 -4.99902 48.667 -14.999 64c-12.667 18.667 -32 28 -58 28c-22 0 -47.333 -7.66699 -76 -23
c-22 -11.333 -44.333 -26.666 -67 -45.999l1 95c22.667 18 48.334 32.5 77.001 43.5s56.667 16.5 84 16.5c57.333 0 97.666 -21.333 120.999 -64c17.333 -32 26 -79.333 26 -142c0 -14.667 -0.666992 -38.834 -2 -72.501s-2 -51.167 -2 -52.5c0 -14 1 -27 3 -39
s7.33301 -19 16 -21l47 16v-68c-20 -12 -38.667 -21.5 -56 -28.5s-35.333 -10.5 -54 -10.5c-8.66699 0 -17.167 3.83301 -25.5 11.5s-14.5 15.834 -18.5 24.501c-20.667 -10.667 -37.667 -18.667 -51 -24c-20 -8 -38.333 -12 -55 -12c-40.667 0 -72.334 9.66699 -95.001 29
c-24.667 21.333 -37 52.333 -37 93c0 43.333 29.667 80.666 89 111.999c32.667 17.333 82 35.333 148 54v16zM229.001 219.001c-37.333 -9.33301 -66.666 -20 -87.999 -32c-35.333 -20 -53 -43.667 -53 -71c0 -14.667 5.66699 -27.667 17 -39s24.666 -17 39.999 -17
c13.333 0 27.666 3.33301 42.999 10c18.667 9.33301 32.334 16 41.001 20v129z" />
    <glyph glyph-name="adieresis" unicode="&#xe4;" horiz-adv-x="403" 
d="M229 292c0 27.333 -4.99902 48.667 -14.999 64c-12.667 18.667 -32 28 -58 28c-22 0 -47.333 -7.66699 -76 -23c-22 -11.333 -44.333 -26.666 -67 -45.999l1 95c22.667 18 48.334 32.5 77.001 43.5s56.667 16.5 84 16.5c57.333 0 97.666 -21.333 120.999 -64
c17.333 -32 26 -79.333 26 -142c0 -14.667 -0.666992 -38.834 -2 -72.501s-2 -51.167 -2 -52.5c0 -14 1 -27 3 -39s7.33301 -19 16 -21l47 16v-68c-20 -12 -38.667 -21.5 -56 -28.5s-35.333 -10.5 -54 -10.5c-8.66699 0 -17.167 3.83301 -25.5 11.5
s-14.5 15.834 -18.5 24.501c-20.667 -10.667 -37.667 -18.667 -51 -24c-20 -8 -38.333 -12 -55 -12c-40.667 0 -72.334 9.66699 -95.001 29c-24.667 21.333 -37 52.333 -37 93c0 43.333 29.667 80.666 89 111.999c32.667 17.333 82 35.333 148 54v16zM229.001 219.001
c-37.333 -9.33301 -66.666 -20 -87.999 -32c-35.333 -20 -53 -43.667 -53 -71c0 -14.667 5.66699 -27.667 17 -39s24.666 -17 39.999 -17c13.333 0 27.666 3.33301 42.999 10c18.667 9.33301 32.334 16 41.001 20v129zM65.001 650.001c16 0 29.835 -5.49902 41.502 -16.499
s17.5 -24.5 17.5 -40.5c0 -18 -5.83301 -32.833 -17.5 -44.5s-26.834 -17.5 -45.501 -17.5c-15.333 0 -28.5 5.83301 -39.5 17.5s-16.5 25.5 -16.5 41.5c0 17.333 5.66699 31.666 17 42.999s25.666 17 42.999 17zM215.003 599.002c0 12 5.83203 23.5 17.499 34.5
s23.834 16.5 36.501 16.5h12c14 0 26.167 -6.5 36.5 -19.5s15.5 -26.833 15.5 -41.5s-5.33301 -28 -16 -40s-23 -18 -37 -18c-20.667 0 -36.667 6 -48 18s-17 28.667 -17 50z" />
    <glyph glyph-name="aring" unicode="&#xe5;" horiz-adv-x="403" 
d="M229 292c0 27.333 -4.99902 48.667 -14.999 64c-12.667 18.667 -32 28 -58 28c-22 0 -47.333 -7.66699 -76 -23c-22 -11.333 -44.333 -26.666 -67 -45.999l1 95c22.667 18 48.334 32.5 77.001 43.5s56.667 16.5 84 16.5c57.333 0 97.666 -21.333 120.999 -64
c17.333 -32 26 -79.333 26 -142c0 -14.667 -0.666992 -38.834 -2 -72.501s-2 -51.167 -2 -52.5c0 -14 1 -27 3 -39s7.33301 -19 16 -21l47 16v-68c-20 -12 -38.667 -21.5 -56 -28.5s-35.333 -10.5 -54 -10.5c-8.66699 0 -17.167 3.83301 -25.5 11.5
s-14.5 15.834 -18.5 24.501c-20.667 -10.667 -37.667 -18.667 -51 -24c-20 -8 -38.333 -12 -55 -12c-40.667 0 -72.334 9.66699 -95.001 29c-24.667 21.333 -37 52.333 -37 93c0 43.333 29.667 80.666 89 111.999c32.667 17.333 82 35.333 148 54v16zM229.001 219.001
c-37.333 -9.33301 -66.666 -20 -87.999 -32c-35.333 -20 -53 -43.667 -53 -71c0 -14.667 5.66699 -27.667 17 -39s24.666 -17 39.999 -17c13.333 0 27.666 3.33301 42.999 10c18.667 9.33301 32.334 16 41.001 20v129zM166.001 682.001c30 0 53.833 -9.50098 71.5 -28.501
s26.5 -43.167 26.5 -72.5c0 -26 -9.5 -47.833 -28.5 -65.5s-41.833 -26.5 -68.5 -26.5c-26 0 -48.333 9.33301 -67 28s-28 41.334 -28 68.001c0 25.333 9.5 47.833 28.5 67.5s40.833 29.5 65.5 29.5zM169.001 535c12.667 0 24 4.66602 34 13.999s15 21 15 35
c0 15.333 -4.5 27.833 -13.5 37.5s-21.167 14.5 -36.5 14.5c-14 0 -25.833 -5.16699 -35.5 -15.5s-14.5 -22.166 -14.5 -35.499s5 -25 15 -35s22 -15 36 -15z" />
    <glyph glyph-name="ae" unicode="&#xe6;" horiz-adv-x="664" 
d="M219 298c0 24.667 -5.33203 44.667 -15.999 60c-12.667 18 -31 27 -55 27c-21.333 0 -47 -7.66699 -77 -23s-53.667 -31.666 -71 -48.999v97c28 19.333 54 33.666 78 42.999c28.667 11.333 58 17 88 17c23.333 0 45 -5.16699 65 -15.5s37.333 -25.166 52 -44.499
c21.333 21.333 42.833 36.666 64.5 45.999s47.167 14 76.5 14c65.333 0 114.333 -26.667 147 -80c27.333 -44.667 41 -101.334 41 -170.001l-309 -1c0 -42.667 11.833 -76.5 35.5 -101.5s57.5 -37.5 101.5 -37.5c26 0 54.333 5.5 85 16.5s57 24.833 79 41.5v-96
c-34 -18.667 -60.667 -31.667 -80 -39c-28.667 -10.667 -58.334 -16 -89.001 -16c-25.333 0 -47 3.5 -65 10.5s-47 26.5 -87 58.5c-25.333 -18 -53.5 -33.833 -84.5 -47.5s-59.833 -20.5 -86.5 -20.5c-34.667 0 -65.5 10.667 -92.5 32s-40.5 49 -40.5 83
c0 48 29.333 88 88 120c27.333 14.667 78 33.334 152 56.001v19zM219.001 217c-41.333 -12 -71.333 -23 -90 -33c-36 -20 -54 -43.667 -54 -71c0 -14 6.16699 -26.5 18.5 -37.5s25.833 -16.5 40.5 -16.5c14 0 29 3.66699 45 11c6 2.66699 19.333 10.667 40 24v123z
M518.001 285c-4.66699 30 -15.333 53.833 -32 71.5s-39.334 26.5 -68.001 26.5c-30.667 0 -55.167 -8.5 -73.5 -25.5s-31.166 -41.167 -38.499 -72.5h212z" />
    <glyph glyph-name="ccedilla" unicode="&#xe7;" horiz-adv-x="403" 
d="M90 -164c4 -1.33301 9.66602 -2 16.999 -2s13.333 -0.333008 18 -1c16.667 0 32.334 4 47.001 12c18 10 27 22.667 27 38c0 16.667 -9.33301 28.667 -28 36c-6.66699 2.66699 -23 6.33398 -49 11.001l36 83h65l-17 -45c27.333 -6.66699 46.333 -15.334 57 -26.001
c14 -13.333 21 -33 21 -59c0 -34 -17 -61 -51 -81c-29.333 -17.333 -62 -26 -98 -26l-45 3v57zM376.999 339c-14.667 11.333 -34.6689 21.001 -60.002 29.001s-48 12 -68 12c-46.667 0 -82.167 -15 -106.5 -45s-36.5 -68.667 -36.5 -116c0 -42 13.333 -76 40 -102
s61 -39 103 -39c24 0 46.333 4 67 12s43.334 19.667 68.001 35v-95c-20.667 -14.667 -43 -25.334 -67 -32.001s-49.333 -10 -76 -10c-66.667 0 -121.834 23.833 -165.501 71.5s-65.5 105.167 -65.5 172.5c0 68.667 21.833 125.5 65.5 170.5s99.834 67.5 168.501 67.5
c22.667 0 45.334 -3.33301 68.001 -10c5.33301 -1.33301 27 -9 65 -23v-98z" />
    <glyph glyph-name="egrave" unicode="&#xe8;" horiz-adv-x="463" 
d="M191 670l69 -159h-69l-109 159h109zM103 216c0 -42 13.498 -75.499 40.498 -100.499s62.833 -37.5 107.5 -37.5c32.667 0 66.334 8 101.001 24c6 2.66699 25 12.667 57 30v-93c-36 -17.333 -63.333 -29.333 -82 -36c-29.333 -10 -59 -15 -89 -15
c-70.667 0 -127 23.5 -169 70.5s-63 106.5 -63 178.5c0 61.333 18.833 115.333 56.5 162s86.834 70 147.501 70c69.333 0 122.333 -25.667 159 -77c32 -44.667 48 -103.334 48 -176.001h-314zM324.998 285.001c-6.66699 30 -19 54.167 -37 72.5s-41.667 27.5 -71 27.5
c-30 0 -54.667 -9 -74 -27s-32 -42.333 -38 -73h220z" />
    <glyph glyph-name="eacute" unicode="&#xe9;" horiz-adv-x="463" 
d="M222 670h109l-103 -157h-71zM103 216c0 -42 13.498 -75.499 40.498 -100.499s62.833 -37.5 107.5 -37.5c32.667 0 66.334 8 101.001 24c6 2.66699 25 12.667 57 30v-93c-36 -17.333 -63.333 -29.333 -82 -36c-29.333 -10 -59 -15 -89 -15c-70.667 0 -127 23.5 -169 70.5
s-63 106.5 -63 178.5c0 61.333 18.833 115.333 56.5 162s86.834 70 147.501 70c69.333 0 122.333 -25.667 159 -77c32 -44.667 48 -103.334 48 -176.001h-314zM324.998 285.001c-6.66699 30 -19 54.167 -37 72.5s-41.667 27.5 -71 27.5c-30 0 -54.667 -9 -74 -27
s-32 -42.333 -38 -73h220z" />
    <glyph glyph-name="ecircumflex" unicode="&#xea;" horiz-adv-x="463" 
d="M156 670h99l118 -158h-75l-92 86l-94 -86h-72zM103 216c0 -42 13.498 -75.499 40.498 -100.499s62.833 -37.5 107.5 -37.5c32.667 0 66.334 8 101.001 24c6 2.66699 25 12.667 57 30v-93c-36 -17.333 -63.333 -29.333 -82 -36c-29.333 -10 -59 -15 -89 -15
c-70.667 0 -127 23.5 -169 70.5s-63 106.5 -63 178.5c0 61.333 18.833 115.333 56.5 162s86.834 70 147.501 70c69.333 0 122.333 -25.667 159 -77c32 -44.667 48 -103.334 48 -176.001h-314zM324.998 285.001c-6.66699 30 -19 54.167 -37 72.5s-41.667 27.5 -71 27.5
c-30 0 -54.667 -9 -74 -27s-32 -42.333 -38 -73h220z" />
    <glyph glyph-name="edieresis" unicode="&#xeb;" horiz-adv-x="463" 
d="M102 650c16.667 0 30.834 -5.16797 42.501 -15.501s17.5 -24.166 17.5 -41.499c0 -19.333 -5.83301 -34.5 -17.5 -45.5s-26.834 -16.5 -45.501 -16.5c-15.333 0 -28.5 5.83301 -39.5 17.5s-16.5 25.5 -16.5 41.5s5.66699 30 17 42s25.333 18 42 18zM307 650.999
l13.001 0.000976562c14.667 0 27.167 -6.5 37.5 -19.5s15.5 -26.833 15.5 -41.5c0 -14 -5.5 -27.167 -16.5 -39.5s-23.5 -18.5 -37.5 -18.5c-20 0 -36 5.66699 -48 17s-18 27.333 -18 48c0 13.333 5.66699 25.666 17 36.999s23.666 17 36.999 17zM103.001 217
c0 -42 13.498 -75.499 40.498 -100.499s62.833 -37.5 107.5 -37.5c32.667 0 66.334 8 101.001 24c6 2.66699 25 12.667 57 30v-93c-36 -17.333 -63.333 -29.333 -82 -36c-29.333 -10 -59 -15 -89 -15c-70.667 0 -127 23.5 -169 70.5s-63 106.5 -63 178.5
c0 61.333 18.833 115.333 56.5 162s86.834 70 147.501 70c69.333 0 122.333 -25.667 159 -77c32 -44.667 48 -103.334 48 -176.001h-314zM324.999 286.001c-6.66699 30 -19 54.167 -37 72.5s-41.667 27.5 -71 27.5c-30 0 -54.667 -9 -74 -27s-32 -42.333 -38 -73h220z" />
    <glyph glyph-name="igrave" unicode="&#xec;" horiz-adv-x="222" 
d="M85 670l69 -159h-69l-110 159h110zM55 459h95v-459h-95v459z" />
    <glyph glyph-name="iacute" unicode="&#xed;" horiz-adv-x="222" 
d="M120 670h111l-104 -157h-71zM60 459h95v-459h-95v459z" />
    <glyph glyph-name="icircumflex" unicode="&#xee;" horiz-adv-x="222" 
d="M45 670h98l119 -158h-75l-93 86l-93 -86h-72zM50 459h95v-459h-95v459z" />
    <glyph glyph-name="idieresis" unicode="&#xef;" horiz-adv-x="222" 
d="M-67 597c0 14.667 5.83301 27.166 17.5 37.499s25.167 15.5 40.5 15.5c19.333 0 34.333 -6 45 -18s16 -27.667 16 -47c0 -15.333 -6.5 -28.166 -19.5 -38.499s-27.833 -15.5 -44.5 -15.5c-14 0 -26.667 5.33301 -38 16s-17 23 -17 37v13zM208 649.999
c12.667 0 24.668 -6.00098 36.001 -18.001s17 -24.333 17 -37v-12c0 -12.667 -5.83301 -24.5 -17.5 -35.5s-23.834 -16.5 -36.501 -16.5c-16.667 0 -31.667 5.33301 -45 16s-20 24.334 -20 41.001c0 20 6 35.333 18 46s28 16 48 16zM50.001 458.998h95v-459h-95v459z" />
    <glyph glyph-name="ntilde" unicode="&#xf1;" 
d="M166 663c13.333 0 43.666 -11.667 90.999 -35c21.333 -10.667 37.333 -16 48 -16c9.33301 0 17.666 5.66699 24.999 17c4.66699 6.66699 9 16.667 13 30l61 -22c-8 -26.667 -19.333 -48 -34 -64c-18 -19.333 -39.333 -29 -64 -29c-16.667 0 -35.667 5 -57 15
c-49.333 23.333 -76.666 35 -81.999 35c-13.333 0 -25.666 -8.33301 -36.999 -25l-15 -25l-55 27c15.333 30.667 28.333 51.667 39 63c18 19.333 40.333 29 67 29zM38 459h95.001v-40c19.333 15.333 39.333 27.333 60 36s42.334 13 65.001 13c68 0 114.667 -22.667 140 -68
c18.667 -33.333 28 -87.333 28 -162v-238h-94v245c0 44 -4 75 -12 93c-12.667 28 -38.334 42 -77.001 42c-18.667 0 -38.334 -5 -59.001 -15c-16.667 -8 -33.667 -19.333 -51 -34v-331h-95v459z" />
    <glyph glyph-name="ograve" unicode="&#xf2;" horiz-adv-x="544" 
d="M230 670l69 -159h-69l-110 159h110zM254 470c66 0 122.166 -24.1689 168.499 -72.502s69.5 -105.833 69.5 -172.5c0 -67.333 -24.667 -123.666 -74 -168.999s-107.666 -68 -174.999 -68c-63.333 0 -119 24 -167 72s-72 103.667 -72 167c0 70.667 24 128.834 72 174.501
s107.333 68.5 178 68.5zM245.999 77.998c42.667 0 79.333 14.667 110 44s46 65 46 107c0 41.333 -15 77 -45 107s-65.667 45 -107 45c-43.333 0 -80.5 -14.833 -111.5 -44.5s-46.5 -66.167 -46.5 -109.5c0 -39.333 15.667 -74 47 -104s67 -45 107 -45z" />
    <glyph glyph-name="oacute" unicode="&#xf3;" horiz-adv-x="544" 
d="M260 670h111l-104 -157h-72zM254 470c66 0 122.166 -24.1689 168.499 -72.502s69.5 -105.833 69.5 -172.5c0 -67.333 -24.667 -123.666 -74 -168.999s-107.666 -68 -174.999 -68c-63.333 0 -119 24 -167 72s-72 103.667 -72 167c0 70.667 24 128.834 72 174.501
s107.333 68.5 178 68.5zM245.999 77.998c42.667 0 79.333 14.667 110 44s46 65 46 107c0 41.333 -15 77 -45 107s-65.667 45 -107 45c-43.333 0 -80.5 -14.833 -111.5 -44.5s-46.5 -66.167 -46.5 -109.5c0 -39.333 15.667 -74 47 -104s67 -45 107 -45z" />
    <glyph glyph-name="ocircumflex" unicode="&#xf4;" horiz-adv-x="544" 
d="M194 670h99l119 -158h-76l-92 86l-93 -86h-73zM254 470c66 0 122.166 -24.1689 168.499 -72.502s69.5 -105.833 69.5 -172.5c0 -67.333 -24.667 -123.666 -74 -168.999s-107.666 -68 -174.999 -68c-63.333 0 -119 24 -167 72s-72 103.667 -72 167
c0 70.667 24 128.834 72 174.501s107.333 68.5 178 68.5zM245.999 77.998c42.667 0 79.333 14.667 110 44s46 65 46 107c0 41.333 -15 77 -45 107s-65.667 45 -107 45c-43.333 0 -80.5 -14.833 -111.5 -44.5s-46.5 -66.167 -46.5 -109.5c0 -39.333 15.667 -74 47 -104
s67 -45 107 -45z" />
    <glyph glyph-name="otilde" unicode="&#xf5;" horiz-adv-x="544" 
d="M181 663c13.333 0 43.335 -11.667 90.002 -35c21.333 -10.667 37.333 -16 48 -16c9.33301 0 17.666 5.66699 24.999 17c4.66699 7.33301 9.33398 17.333 14.001 30l62 -21c-13.333 -31.333 -25 -53 -35 -65c-16.667 -19.333 -38.334 -29 -65.001 -29
c-16.667 0 -35.667 5 -57 15c-49.333 23.333 -76.333 35 -81 35c-8.66699 0 -17.334 -3.83301 -26.001 -11.5s-17 -20.5 -25 -38.5l-56 27c15.333 30.667 28.333 51.667 39 63c18 19.333 40.333 29 67 29zM253.002 470c66 0 122.166 -24.1689 168.499 -72.502
s69.5 -105.833 69.5 -172.5c0 -67.333 -24.667 -123.666 -74 -168.999s-107.666 -68 -174.999 -68c-63.333 0 -119 24 -167 72s-72 103.667 -72 167c0 70.667 24 128.834 72 174.501s107.333 68.5 178 68.5zM245.001 77.998c42.667 0 79.333 14.667 110 44s46 65 46 107
c0 41.333 -15 77 -45 107s-65.667 45 -107 45c-43.333 0 -80.5 -14.833 -111.5 -44.5s-46.5 -66.167 -46.5 -109.5c0 -39.333 15.667 -74 47 -104s67 -45 107 -45z" />
    <glyph glyph-name="odieresis" unicode="&#xf6;" horiz-adv-x="544" 
d="M254 470c66 0 122.166 -24.1689 168.499 -72.502s69.5 -105.833 69.5 -172.5c0 -67.333 -24.667 -123.666 -74 -168.999s-107.666 -68 -174.999 -68c-63.333 0 -119 24 -167 72s-72 103.667 -72 167c0 70.667 24 128.834 72 174.501s107.333 68.5 178 68.5z
M245.999 77.998c42.667 0 79.333 14.667 110 44s46 65 46 107c0 41.333 -15 77 -45 107s-65.667 45 -107 45c-43.333 0 -80.5 -14.833 -111.5 -44.5s-46.5 -66.167 -46.5 -109.5c0 -39.333 15.667 -74 47 -104s67 -45 107 -45zM81.998 596.998
c0 14 5.83203 26.5 17.499 37.5s24.834 16.5 39.501 16.5c16.667 0 31.167 -5.16699 43.5 -15.5s18.5 -23.5 18.5 -39.5c0 -19.333 -5.66699 -35 -17 -47s-27 -18 -47 -18c-14 0 -26.667 5.33301 -38 16s-17 23 -17 37v13zM356.997 649.998
c12.667 0 24.666 -5.99902 35.999 -17.999s17 -24.333 17 -37v-12c0 -14 -6.16699 -26.167 -18.5 -36.5s-26.166 -15.5 -41.499 -15.5s-29 5.66699 -41 17s-18 24.666 -18 39.999c0 20 6 35.333 18 46s28 16 48 16z" />
    <glyph glyph-name="divide" unicode="&#xf7;" horiz-adv-x="520" 
d="M-4 279h505v-52h-505v52zM243 438c14.667 0 27.334 -5.33301 38.001 -16s16 -23.334 16 -38.001s-5.33301 -27.334 -16 -38.001s-23.334 -16 -38.001 -16c-14 0 -26.333 5.33301 -37 16s-16 23.334 -16 38.001s5 27.334 15 38.001s22.667 16 38 16zM243 176
c14.667 0 27.334 -5.33301 38.001 -16s16 -23.334 16 -38.001s-5.33301 -27.334 -16 -38.001s-23.334 -16 -38.001 -16c-14 0 -26.333 5.33301 -37 16s-16 23.334 -16 38.001s5 27.334 15 38.001s22.667 16 38 16z" />
    <glyph glyph-name="oslash" unicode="&#xf8;" horiz-adv-x="544" 
d="M68 67c-21.333 26.667 -37 51 -47 73c-12 26.667 -18 55 -18 85c0 68 23.167 125.833 69.5 173.5s103.5 71.5 171.5 71.5c28.667 0 53.667 -3.66699 75 -11s45.666 -19.333 72.999 -36l67 73l34 -31l-67 -73c19.333 -26 32.333 -44.667 39 -56
c17.333 -30 26 -64.667 26 -104c0 -69.333 -22.167 -127.5 -66.5 -174.5s-101.166 -70.5 -170.499 -70.5c-30 0 -55.5 3.66699 -76.5 11s-46.5 20 -76.5 38l-65 -72l-35 30zM254 72c44.667 0 80.833 14.832 108.5 44.499s41.5 66.834 41.5 111.501c0 20 -2.66699 37 -8 51
s-14.333 30.667 -27 50l-206 -227c28 -20 58.333 -30 91 -30zM333.999 360.999c-11.333 9.33301 -24.5 16.167 -39.5 20.5s-30.833 6.5 -47.5 6.5c-42.667 0 -79.167 -15.5 -109.5 -46.5s-45.5 -68.5 -45.5 -112.5c0 -34 11 -66.667 33 -98z" />
    <glyph glyph-name="ugrave" unicode="&#xf9;" 
d="M215 670l68 -159h-68l-110 159h110zM39 459h94.001v-233c0 -48.667 2.66699 -81 8 -97c11.333 -33.333 36.333 -50 75 -50c41.333 0 79.666 17 114.999 51v329h96v-459h-96l-1 40c-38.667 -32.667 -82.667 -49 -132 -49c-58 0 -100.333 22 -127 66
c-21.333 35.333 -32 84.333 -32 147v255z" />
    <glyph glyph-name="uacute" unicode="&#xfa;" 
d="M245 670h110l-103 -157h-71zM39 459h94.001v-233c0 -48.667 2.66699 -81 8 -97c11.333 -33.333 36.333 -50 75 -50c41.333 0 79.666 17 114.999 51v329h96v-459h-96l-1 40c-38.667 -32.667 -82.667 -49 -132 -49c-58 0 -100.333 22 -127 66
c-21.333 35.333 -32 84.333 -32 147v255z" />
    <glyph glyph-name="ucircumflex" unicode="&#xfb;" 
d="M180 670h98l119 -158h-75l-93 86l-93 -86h-72zM39 459h94.001v-233c0 -48.667 2.66699 -81 8 -97c11.333 -33.333 36.333 -50 75 -50c41.333 0 79.666 17 114.999 51v329h96v-459h-96l-1 40c-38.667 -32.667 -82.667 -49 -132 -49c-58 0 -100.333 22 -127 66
c-21.333 35.333 -32 84.333 -32 147v255z" />
    <glyph glyph-name="udieresis" unicode="&#xfc;" 
d="M39 459h94.001v-233c0 -48.667 2.66699 -81 8 -97c11.333 -33.333 36.333 -50 75 -50c41.333 0 79.666 17 114.999 51v329h96v-459h-96l-1 40c-38.667 -32.667 -82.667 -49 -132 -49c-58 0 -100.333 22 -127 66c-21.333 35.333 -32 84.333 -32 147v255zM68.001 597
c0 14 6.16797 26.499 18.501 37.499s26.166 16.5 41.499 16.5s29 -5 41 -15s18 -22.667 18 -38v-13c0 -15.333 -6.5 -28.166 -19.5 -38.499s-27.5 -15.5 -43.5 -15.5c-13.333 0 -26 5.33301 -38 16s-18 23 -18 37v13zM332.002 649.999l13.002 -0.000976562
c12 0 23.667 -6 35 -18s17 -24.333 17 -37v-12c0 -12.667 -5.83301 -24.5 -17.5 -35.5s-23.834 -16.5 -36.501 -16.5c-16.667 0 -31.667 5.33301 -45 16s-20 24.334 -20 41.001c0 15.333 5.16699 29.5 15.5 42.5s23.166 19.5 38.499 19.5z" />
    <glyph glyph-name="ydieresis" unicode="&#xff;" horiz-adv-x="463" 
d="M99 650c16.667 0 30.834 -5.16797 42.501 -15.501s17.5 -24.166 17.5 -41.499c0 -19.333 -5.83301 -34.5 -17.5 -45.5s-26.834 -16.5 -45.501 -16.5c-15.333 0 -28.5 5.83301 -39.5 17.5s-16.5 25.5 -16.5 41.5s5.66699 30 17 42s25.333 18 42 18zM304 650.999
l13.001 0.000976562c14.667 0 27.167 -6.5 37.5 -19.5s15.5 -26.833 15.5 -41.5c0 -14 -5.5 -27.167 -16.5 -39.5s-23.5 -18.5 -37.5 -18.5c-20 0 -36 5.66699 -48 17s-18 27.333 -18 48c0 13.333 5.66699 25.666 17 36.999s23.666 17 36.999 17zM82.001 460l137 -304
l132 304h105l-322 -717h-105l139 312l-191 405h105z" />
    <glyph glyph-name="dotlessi" unicode="&#x131;" horiz-adv-x="222" 
d="M54 459h95v-459h-95v459z" />
    <glyph glyph-name="OE" unicode="&#x152;" horiz-adv-x="845" 
d="M791 706v-94h-266v-214h244v-92h-244v-216h262v-90h-423c-109.333 0 -198 31.667 -266 95c-70 65.333 -105 152.333 -105 261c0 109.333 38.333 196 115 260c72 60 164 90 276 90h407zM426 611l-29 0.999023c-88.667 0 -159 -21.333 -211 -64
c-56 -46 -84 -112.667 -84 -200c0 -85.333 29.667 -150.666 89 -195.999c53.333 -40.667 124.333 -61 213 -61h22v520z" />
    <glyph glyph-name="oe" unicode="&#x153;" horiz-adv-x="845" 
d="M589 470c64 0 114.666 -23.0029 151.999 -69.0029c34.667 -42.667 52 -96.667 52 -162v-18h-317c0 -43.333 12.167 -78.166 36.5 -104.499s58.5 -39.5 102.5 -39.5c29.333 0 59 5.33301 89 16c20.667 7.33301 48 20.333 82 39v-92c-30 -16.667 -59.667 -29.5 -89 -38.5
s-60 -13.5 -92 -13.5c-41.333 0 -77 8.83301 -107 26.5s-54.333 44.834 -73 81.501c-45.333 -72 -110 -108 -194 -108c-68 0 -125.667 24 -173 72s-71 105.667 -71 173c0 66 24 121.833 72 167.5s105.333 68.5 172 68.5c41.333 0 77.5 -8.16699 108.5 -24.5
s59.5 -41.166 85.5 -74.499c20.667 32 43.334 56 68.001 72c28.667 18.667 60.667 28 96 28zM237.999 80.9971c42.667 0 77.667 14.333 105 43s41 64.667 41 108c0 42.667 -15 77.5 -45 104.5s-66.667 40.5 -110 40.5c-40 0 -74.667 -14.667 -104 -44s-44 -64.333 -44 -105
c0 -42 15.333 -77 46 -105s67.667 -42 111 -42zM700.999 286.997c-7.33301 31.333 -19 55 -35 71c-18 18 -42.333 27 -73 27c-28.667 0 -54 -9.33301 -76 -28s-35.333 -42 -40 -70h224z" />
    <glyph glyph-name="Scaron" unicode="&#x160;" horiz-adv-x="727" 
d="M296 0l-282.999 0.00195312v156h15c4 -21.333 10.167 -36.5 18.5 -45.5s22.833 -13.5 43.5 -13.5h152l-2 26c-65.333 19.333 -116 50.333 -152 93c-38 44.667 -57 100.667 -57 168c0 85.333 32.333 153.666 97 204.999c60 47.333 134.333 71 223 71
c87.333 0 160.666 -24 219.999 -72c64 -51.333 96 -120 96 -206c0 -66.667 -18.167 -121.5 -54.5 -164.5s-87.5 -74.167 -153.5 -93.5l-2 -27h153c20 0 34.5 4.66699 43.5 14s15.167 24.333 18.5 45h15v-156h-284l16 146c50 21.333 86 53.333 108 96
c18.667 36.667 28 84.667 28 144c0 72 -15.667 129.333 -47 172c-35.333 48 -88 72 -158 72s-122.667 -23.667 -158 -71c-32 -42.667 -48 -100.334 -48 -173.001c0 -58.667 9.33301 -106.667 28 -144c21.333 -42.667 57.333 -74.667 108 -96z" />
    <glyph glyph-name="Ydieresis" unicode="&#x178;" horiz-adv-x="583" 
d="M122 895c19.333 0 35.667 -6.66699 49 -20s20 -30 20 -50c0 -19.333 -7 -35.333 -21 -48s-30.667 -19 -50 -19c-15.333 0 -30 5.5 -44 16.5s-21 24.167 -21 39.5v17c0 17.333 6.66699 32.333 20 45s29 19 47 19zM404.001 895c18 0 33.333 -6.99902 46 -20.999
s19 -30 19 -48c0 -19.333 -6.5 -35.5 -19.5 -48.5s-29.5 -19.5 -49.5 -19.5c-18.667 0 -34.5 7.16699 -47.5 21.5s-19.5 31.166 -19.5 50.499c0 18.667 7.16699 34.167 21.5 46.5s30.833 18.5 49.5 18.5zM94.001 706.001l168 -236l168 236h124l-243 -333v-373h-101v373
l-239 333h123z" />
    <glyph glyph-name="florin" unicode="&#x192;" horiz-adv-x="520" 
d="M491 0h-477v53h477v-53zM491 333l-477 -221v60l416 191l-416 191v59l477 -220v-60z" />
    <glyph glyph-name="circumflex" unicode="&#x2c6;" horiz-adv-x="0" 
d="M-52 670h99l119 -158h-76l-92 86l-93 -86h-73z" />
    <glyph glyph-name="caron" unicode="&#x2c7;" horiz-adv-x="0" 
d="M-93 670l92 -87l95 87h74l-117 -158h-99l-120 158h75z" />
    <glyph glyph-name="tilde" unicode="&#x2dc;" horiz-adv-x="0" 
d="M-65 663c13.333 0 43.334 -11.667 90.001 -35c21.333 -10.667 37.333 -16 48 -16c9.33301 0 17.666 5.66699 24.999 17c4.66699 7.33301 9.33398 17.333 14.001 30l62 -21c-12.667 -30.667 -24 -52 -34 -64c-16.667 -20 -38 -30 -64 -30c-19.333 0 -45 8.33301 -77 25
s-52.667 25 -62 25c-8.66699 0 -17.5 -3.83301 -26.5 -11.5s-17.5 -20.5 -25.5 -38.5l-56 28c16.667 32 29.667 53 39 63c17.333 18.667 39.666 28 66.999 28z" />
    <glyph glyph-name="endash" unicode="&#x2013;" 
d="M16 287h449v-99h-449v99z" />
    <glyph glyph-name="emdash" unicode="&#x2014;" horiz-adv-x="644" 
d="M-32 331h666v-79h-666v79z" />
    <glyph glyph-name="quoteleft" unicode="&#x2018;" horiz-adv-x="222" 
d="M183 690c-32 -48.667 -48 -101.668 -48 -159.001v-4c34.667 -11.333 52 -33.333 52 -66c0 -20 -7.16699 -37.5 -21.5 -52.5s-31.166 -22.5 -50.499 -22.5c-28.667 0 -50.167 10.833 -64.5 32.5s-21.5 47.834 -21.5 78.501c0 43.333 13.333 84.333 40 123
c21.333 30.667 52.666 62 93.999 94z" />
    <glyph glyph-name="quoteright" unicode="&#x2019;" horiz-adv-x="222" 
d="M35 410c15.333 23.333 27.168 47 35.501 71s12.5 49 12.5 75v17c-18 8.66699 -30.333 16.667 -37 24c-9.33301 10.667 -14 24.667 -14 42c0 20 6.83301 37.5 20.5 52.5s30.5 22.5 50.5 22.5c29.333 0 51.666 -11.333 66.999 -34c13.333 -19.333 20 -44.333 20 -75
c0 -42.667 -13.667 -84 -41 -124c-22.667 -34 -54 -65.667 -94 -95z" />
    <glyph glyph-name="quotesinglbase" unicode="&#x201a;" horiz-adv-x="205" 
d="M34 -161c32 43.333 48 94 48 152l-1 11c-18 8 -30.5 16.833 -37.5 26.5s-10.5 24.167 -10.5 43.5c0 18 6.83301 34.5 20.5 49.5s29.5 22.5 47.5 22.5c28 0 50.333 -11.667 67 -35c14.667 -20.667 22 -45.667 22 -75c0 -44 -13.667 -85.333 -41 -124
c-20.667 -29.333 -52 -60.333 -94 -93z" />
    <glyph glyph-name="quotedblleft" unicode="&#x201c;" horiz-adv-x="442" 
d="M400 690l-28 -52c-13.333 -28 -20 -58.667 -20 -92l-1 -18c36 -10 54 -33.333 54 -70c0 -19.333 -7 -36.333 -21 -51s-30.667 -22 -50 -22c-29.333 0 -52 12.333 -68 37c-13.333 20.667 -20 46.667 -20 78c0 38 13.5 78.5 40.5 121.5s57.833 73.833 92.5 92.5zM172 689
c-16.667 -18 -29 -40.8311 -37 -68.498s-12 -55.834 -12 -84.501v-9c34 -9.33301 51 -32 51 -68c0 -18.667 -5.66699 -35.334 -17 -50.001s-26.333 -22 -45 -22c-32 0 -55.667 10.5 -71 31.5s-23 47.833 -23 80.5c0 44 12.667 85.333 38 124c22.667 34.667 54 65 94 91z" />
    <glyph glyph-name="quotedblright" unicode="&#x201d;" horiz-adv-x="442" 
d="M25 410c16 24.667 28 48.1699 36 70.5029s12 46.833 12 73.5v17c-19.333 9.33301 -33 18.833 -41 28.5s-12 24.5 -12 44.5c0 17.333 7 33.333 21 48s29.667 22 47 22c30.667 0 54 -11.667 70 -35c14 -20.667 21 -47.334 21 -80.001s-8.16699 -64.334 -24.5 -95.001
s-37.833 -58.334 -64.5 -83.001l-44 -36zM253 409.003c16 20.667 28.167 44.332 36.5 70.999s12.5 53.667 12.5 81v10c-34.667 12 -52 35 -52 69c0 18.667 6 35.334 18 50.001s27 22 45 22c32 0 55.667 -10.5 71 -31.5s23 -47.833 23 -80.5c0 -42.667 -13 -83.667 -39 -123
c-23.333 -35.333 -54.333 -66.333 -93 -93z" />
    <glyph glyph-name="quotedblbase" unicode="&#x201e;" horiz-adv-x="442" 
d="M25 -158c16 26.667 28.001 50.8311 36.001 72.498s12 45.834 12 72.501v16c-17.333 4.66699 -30.5 13.5 -39.5 26.5s-13.5 28.833 -13.5 47.5c0 17.333 7.66699 33.333 23 48s31.666 22 48.999 22c28.667 0 51 -12.333 67 -37c14 -22 21 -48.333 21 -79
c0 -38 -13.667 -78.667 -41 -122s-58.333 -73.666 -93 -90.999zM253.001 -157.003c32.667 43.333 48.999 93.999 48.999 151.999v8c-34.667 12.667 -52 36.334 -52 71.001c0 20 6.5 36.833 19.5 50.5s29.833 20.5 50.5 20.5c28 0 50 -11.667 66 -35
c14 -20.667 21 -45.667 21 -75c0 -40 -13.167 -81.5 -39.5 -124.5s-57.166 -73.833 -92.499 -92.5z" />
    <glyph glyph-name="dagger" unicode="&#x2020;" horiz-adv-x="483" 
d="M160 633c0 21.333 3.66309 39.332 10.9961 53.999c10 20 24.667 30 44 30c21.333 0 36.333 -10.667 45 -32c6 -15.333 9 -35.666 9 -60.999c0 -30 -3 -62.667 -9 -98s-13.667 -68 -23 -98c42 10.667 65.333 16.667 70 18c26.667 6 50.667 9 72 9
c18 0 33.667 -4.16699 47 -12.5s20 -20.833 20 -37.5s-6.33301 -29.167 -19 -37.5s-27.667 -12.5 -45 -12.5c-20.667 0 -44 3.16699 -70 9.5s-51 12.833 -75 19.5l26.5 -250.5c9 -85.667 13.5 -165.167 13.5 -238.5c0 -52.667 -4.83301 -90.834 -14.5 -114.501
s-24.834 -35.5 -45.501 -35.5c-25.333 0 -42.666 19.667 -51.999 59c-5.33301 22 -8 51.667 -8 89c0 82.667 3 160.167 9 232.5s15.667 158.833 29 259.5c-23.333 -6.66699 -48.166 -13.334 -74.499 -20.001s-49.166 -10 -68.499 -10c-18 0 -32.667 3.33301 -44 10
c-14 8.66699 -21 21.334 -21 38.001s6.83301 29.334 20.5 38.001s29.5 13 47.5 13c20.667 0 42.334 -2.33301 65.001 -7s47.334 -11 74.001 -19c-10.667 36 -19 71.167 -25 105.5s-9 67.5 -9 99.5z" />
    <glyph glyph-name="daggerdbl" unicode="&#x2021;" horiz-adv-x="779" 
d="M657 3c0 -30.667 7.5 -51.332 22.5 -61.999s38.5 -16 70.5 -16v-22h-294v22c31.333 0 54.5 5.33301 69.5 16s22.5 31.334 22.5 62.001v665h-343v-665c0 -30.667 7.5 -51.334 22.5 -62.001s38.5 -16 70.5 -16v-22h-295v22c32.667 0 55.667 4.66699 69 14
c16 11.333 24 32.666 24 63.999v601c0 63.333 -30.333 95 -91 95v22h742v-22c-30 0 -52.5 -8.16699 -67.5 -24.5s-22.5 -39.833 -22.5 -70.5v-601z" />
    <glyph glyph-name="bullet" unicode="&#x2022;" horiz-adv-x="333" 
d="M297 353c0 -36.667 -12.167 -67.5 -36.5 -92.5s-54.833 -37.5 -91.5 -37.5c-36 0 -67.167 12.833 -93.5 38.5s-39.5 56.167 -39.5 91.5s13.167 65.833 39.5 91.5s57.5 38.5 93.5 38.5s66.333 -12.667 91 -38s37 -56 37 -92z" />
    <glyph glyph-name="ellipsis" unicode="&#x2026;" horiz-adv-x="1000" 
d="M219 0h-104v106h104v-106zM552 0h-104v106h104v-106zM885 0h-104v106h104v-106z" />
    <glyph glyph-name="perthousand" unicode="&#x2030;" horiz-adv-x="259" 
d="M52 -103c-15.333 0 -28.6689 6.00293 -40.002 18.0029s-17 25.667 -17 41c0 10.667 4.33301 20 13 28s18.334 12 29.001 12c8.66699 0 18.667 -5 30 -15s18.333 -15 21 -15c7.33301 0 13.5 9 18.5 27s7.5 40.333 7.5 67c0 49.333 -0.333008 86.333 -1 111
c-3.33301 124 -5 186.333 -5 187v220c0 73.333 4 131.666 12 174.999c15.333 84.667 44.333 127 87 127c16.667 0 31.667 -5 45 -15s20 -23.333 20 -40c0 -12 -4.83301 -21.833 -14.5 -29.5s-20.834 -11.5 -33.501 -11.5c-8.66699 0 -17.667 3.66699 -27 11
s-16.666 11 -21.999 11c-7.33301 0 -12.166 -2.83301 -14.499 -8.5s-3.5 -12.834 -3.5 -21.501c0 -29.333 4 -93.333 12 -192c4 -49.333 6 -88 6 -116l1 -106c0 -92.667 -2.66699 -169.334 -8 -230.001c-10 -113.333 -28 -183.666 -54 -210.999
c-6 -6.66699 -15.5 -12.334 -28.5 -17.001s-24.167 -7 -33.5 -7z" />
    <glyph glyph-name="guilsinglleft" unicode="&#x2039;" horiz-adv-x="333" 
d="M245 108l-157 123v92l157 123v-88l-105 -81l105 -81v-88z" />
    <glyph glyph-name="guilsinglright" unicode="&#x203a;" horiz-adv-x="333" 
d="M88 196l105 81l-105 81v88l157 -123v-92l-157 -123v88z" />
    <glyph glyph-name="trademark" unicode="&#x2122;" horiz-adv-x="843" 
d="M301 646l3 -93l-17 -1v8c0 28.667 -12 47.667 -36 57c-14 5.33301 -38.333 8 -73 8v-300c0 -8.66699 3.5 -15.167 10.5 -19.5s19.5 -6.5 37.5 -6.5v-18h-154v18c18.667 0 31.5 2 38.5 6s10.5 10.667 10.5 20l-1 300c-36 0 -60.667 -3 -74 -9
c-22.667 -10 -34 -31.333 -34 -64l-18 1l3 93h304zM442 646l126 -276l121 276h108v-17h-9c-12 0 -21.333 -1.5 -28 -4.5s-10 -9.5 -10 -19.5v-280c0 -8.66699 3.5 -15.167 10.5 -19.5s19.5 -6.5 37.5 -6.5v-18h-154v18c18.667 0 31.5 2 38.5 6s10.5 10.667 10.5 20v266
l-128 -310h-18l-138 295v-251c0 -11.333 5.66699 -19 17 -23c6 -2 16.667 -3 32 -3v-18h-124v18c18.667 0 31.5 2 38.5 6s10.5 10.667 10.5 20v270c0 16.667 -4 26.5 -12 29.5s-16.667 4.5 -26 4.5h-13v17h110z" />
    <glyph glyph-name="fraction" unicode="&#x2215;" horiz-adv-x="121" 
d="M198 727l42 -21l-361 -728l-42 22z" />
    <glyph glyph-name=".null" horiz-adv-x="0" 
 />
    <glyph glyph-name="nonmarkingreturn" horiz-adv-x="262" 
 />
    </font>
</defs>
</svg>
